<?xml version="1.0" encoding="UTF-8" standalone="no"?>
<!-- Created with Inkscape (http://www.inkscape.org/) -->

<svg
   xmlns:dc="http://purl.org/dc/elements/1.1/"
   xmlns:cc="http://creativecommons.org/ns#"
   xmlns:rdf="http://www.w3.org/1999/02/22-rdf-syntax-ns#"
   xmlns:svg="http://www.w3.org/2000/svg"
   xmlns="http://www.w3.org/2000/svg"
   xmlns:sodipodi="http://sodipodi.sourceforge.net/DTD/sodipodi-0.dtd"
   xmlns:inkscape="http://www.inkscape.org/namespaces/inkscape"
   width="1307.0975"
   height="700"
   id="svg7146"
   version="1.1"
   inkscape:version="0.48.4 r9939"
   sodipodi:docname="aliens_wood.svg">
  <defs
     id="defs7148" />
  <sodipodi:namedview
     id="base"
     pagecolor="#ffffff"
     bordercolor="#666666"
     borderopacity="1.0"
     inkscape:pageopacity="0.0"
     inkscape:pageshadow="2"
     inkscape:zoom="0.49497475"
     inkscape:cx="899.41603"
     inkscape:cy="371.59726"
     inkscape:document-units="px"
     inkscape:current-layer="layer1"
     showgrid="false"
     showborder="false"
     inkscape:showpageshadow="false"
     inkscape:window-width="1280"
     inkscape:window-height="972"
     inkscape:window-x="-8"
     inkscape:window-y="-8"
     inkscape:window-maximized="1"
     fit-margin-top="0"
     fit-margin-left="0"
     fit-margin-right="0"
     fit-margin-bottom="0" />
  <metadata
     id="metadata7151">
    <rdf:RDF>
      <cc:Work
         rdf:about="">
        <dc:format>image/svg+xml</dc:format>
        <dc:type
           rdf:resource="http://purl.org/dc/dcmitype/StillImage" />
        <dc:title />
      </cc:Work>
    </rdf:RDF>
  </metadata>
  <g
     inkscape:label="Layer 1"
     inkscape:groupmode="layer"
     id="layer1"
     transform="translate(1316.1379,-109.6548)">
    <g
       id="g9044"
       transform="matrix(1.0725394,0,0,1.184606,95.471895,-81.598022)">
      <rect
         y="552.07922"
         x="-1315.7505"
         height="91.700142"
         width="1218.1324"
         id="rect7154-6-9"
         style="fill:#3f432f;fill-opacity:1;fill-rule:nonzero;stroke:none" />
      <path
         sodipodi:nodetypes="csscssssscsscsscsscscsscc"
         inkscape:connector-curvature="0"
         id="path7156-1-5"
         d="m -848.91212,553.10782 c 10.4654,-28.69574 15.93173,-68.98273 -46.1717,-81.42356 -45.48028,-9.1108 -37.81747,-39.79138 -45.56906,-55.59918 -11.64557,-23.74876 -45.06287,-40.30843 -43.07073,-62.12018 12.07252,12.76361 30.43576,30.9016 47.68522,37.71383 34.76118,13.72799 9.93698,44.28429 55.49429,53.6771 21.4282,4.41797 52.33194,19.96044 46.31385,-4.04906 -5.52741,-22.052 -14.6319,-39.80833 1.00107,-63.96704 13.5914,-21.00361 -19.13683,-41.38768 2.08545,-63.74157 6.3392,-6.67719 -19.57233,-38.21485 -0.31248,-16.17747 12.79781,16.90474 -1.36165,18.77062 7.18467,36.09187 11.39142,23.08769 9.22416,45.88894 7.80806,66.05476 -0.92885,13.22673 19.07702,38.23872 35.43488,39.20985 30.45728,-14.8458 35.24159,-33.55015 35.17306,-57.73488 -0.0841,-29.66376 -5.36256,-33.73254 28.25744,-47.52028 27.69304,-11.35706 -3.99681,-43.37513 32.25417,-49.48822 -22.42522,25.19254 8.271,49.91699 -28.44389,59.70348 -29.45463,7.85122 -9.13755,47.65541 -16.74121,68.70344 -5.18043,14.34009 -0.31727,31.7747 -7.55422,39.12594 37.81233,13.09762 33.19753,-18.3404 51.9345,-29.26995 32.9723,-19.23322 32.35157,-19.55897 27.35346,-29.96646 25.17044,22.05921 -13.01514,27.62488 -14.03674,49.39527 -0.89722,19.12004 -38.33103,24.67134 -39.63953,49.00464 -2.92068,54.31451 -7.64766,41.61023 6.40846,66.50264 -6.08056,19.59973 -232.58911,6.33087 -142.84902,-4.12497 z"
         style="fill:#3f432f;fill-opacity:1;stroke:none" />
      <path
         sodipodi:nodetypes="cssscsssscssssssccc"
         inkscape:connector-curvature="0"
         id="path7162-8-4"
         d="m -1207.1879,554.76525 c 56.2373,-6.48269 67.4227,-45.45499 54.1889,-71.26163 -18.8353,-36.72995 -0.9172,-75.09183 -7.8201,-112.21466 -5.5186,-29.67788 -56.1947,-41.41973 -69.972,-73.12281 -10.6052,-24.4038 -46.0664,-19.62398 -44.7958,-43.57096 14.9727,20.72768 53.4155,22.41408 67.5041,50.69696 11.142,22.36749 72.4097,17.12142 92.2156,40.67227 24.437,29.05783 60.7684,-31.3839 121.89857,-22.315 49.79516,7.38731 31.70907,-31.78519 63.51528,-47.75561 30.06892,-15.09809 80.63295,-8.54852 38.5844,-8.76507 -53.29423,9.41521 -17.02316,46.73079 -63.05787,63.47197 -34.42627,12.51961 -91.43978,-0.72875 -107.37108,25.90897 -7.9383,13.27325 -47.3678,56.27491 -9.3276,48.99411 36.6056,-7.00621 35.7945,-18.67224 81.18622,-20.17879 45.96218,-1.52548 88.41588,-1.30696 41.09994,2.44275 -33.4184,2.64835 -75.66786,4.60773 -103.86946,24.1247 -31.7454,21.96948 -9.6003,55.49399 -16.2374,82.42669 -2.654,24.57859 20.7598,50.70456 26.6964,70.20297 -74.7785,6.69843 -105.1313,-4.2876 -163.8166,-9.75686"
         style="fill:#3f432f;fill-opacity:1;stroke:none" />
      <path
         sodipodi:nodetypes="csssssssssssscc"
         inkscape:connector-curvature="0"
         id="path7168-9-3"
         d="m -230.02905,552.13584 c 56.21531,-1.91339 43.07041,-44.03163 13.78251,-59.6192 -34.18276,-18.19271 -8.44762,-31.00268 -61.11483,-48.96198 -11.61317,-3.96004 -60.53039,-6.83091 -20.01817,-5.30674 49.41304,1.85903 53.72661,10.51106 76.44153,23.34204 16.29366,9.2038 37.12355,24.43165 34.52292,2.90081 -3.11576,-25.7959 3.78713,-45.93009 -5.82989,-67.09451 -8.11908,-17.86786 25.76092,14.39869 23.17748,39.3959 -1.62643,15.73733 15.45658,53.46547 27.34716,30.67996 10.39128,-19.91242 15.85388,-40.72003 21.07787,-65.0764 10.86127,-50.63967 4.30701,5.7434 1.88828,33.51065 -1.28461,14.74729 -29.36231,43.23619 -3.03651,29.50859 34.488205,-17.9839 11.67056,-10.51613 -2.79007,29.04017 -10.34597,28.3009 9.83341,41.18758 18.45095,59.09026 -38.46575,8.68103 -83.06909,-2.83024 -123.24226,-0.59434"
         style="fill:#3f432f;fill-opacity:1;stroke:none" />
      <path
         sodipodi:nodetypes="csssscsssczssssssscc"
         inkscape:connector-curvature="0"
         id="path7170-2-1"
         d="m -449.20132,567.14399 c 26.54407,-28.83032 8.46441,-62.21643 7.25342,-92.88491 -1.0878,-27.54815 -45.37344,-47.02488 -45.26576,-74.39883 0.10819,-27.49972 -49.50778,-43.00838 -90.85142,-47.96084 -26.85477,-3.21688 -22.22783,13.79008 -56.0886,13.23933 -36.11319,-0.58738 -106.29904,-9.58257 -73.20746,-10.19725 48.06698,-3.68312 70.49441,4.44684 96.59656,-11.32188 36.0756,-21.79385 103.80234,23.38893 133.11574,14.29725 31.97976,-9.91866 -21.59319,-43.32632 11.98137,-60.95492 13.08766,-6.87177 18.24928,-13.58469 21.2431,-28.97705 19.8225,17.01263 -28.04632,37.30495 -12.88784,50.69368 15.15848,13.38872 13.5368,59.87097 49.12254,42.1439 29.46019,-14.67561 7.22035,-37.59562 19.98751,-58.2268 8.49717,-13.73109 50.45544,-32.61046 54.87448,-51.70478 6.25946,-27.04688 6.57013,27.0868 -13.84299,39.07021 -27.0214,15.86277 -14.69768,30.36944 -15.97389,52.14842 -1.46924,25.07388 -23.91399,52.79153 -3.3235,79.88949 20.67523,27.20948 20.30579,58.10903 20.11528,87.44423 -0.1256,19.34125 40.51387,76.13896 -19.5767,59.24965 -25.22025,-2.09908 -59.21424,3.48166 -83.27184,-1.5489 z"
         style="fill:#3f432f;fill-opacity:1;stroke:none" />
      <rect
         transform="scale(-1,1)"
         y="584.61078"
         x="97.443748"
         height="107.86445"
         width="1218.1326"
         id="rect7154-6"
         style="fill:#4f553b;fill-opacity:1;fill-rule:nonzero;stroke:none" />
      <path
         sodipodi:nodetypes="csscssssscsscsscsscscsscc"
         inkscape:connector-curvature="0"
         id="path7156-1"
         d="m -178.79598,581.58628 c -10.46542,-33.75405 -15.93174,-81.14256 46.1717,-95.77638 45.480288,-10.7168 -2.8968,-56.80554 4.8548,-75.39984 11.64556,-27.93504 0.77712,-28.84231 -1.21501,-54.49889 -12.07252,15.0135 7.42141,32.7773 -9.82808,40.79034 -34.76118,16.14788 37.20587,47.09045 -8.35143,58.13896 -21.4282,5.19674 -52.33196,23.47893 -46.31387,-4.76281 5.52743,-25.93918 14.63192,-46.82548 -1.00109,-75.24273 -13.59135,-24.70599 19.13687,-48.68323 -2.08544,-74.97752 -6.33918,-7.85419 19.57236,-44.95111 0.31249,-19.02913 -12.79779,19.88461 1.36163,22.07938 -7.18464,42.45392 -11.39144,27.15743 -9.22418,53.97794 -7.80806,77.69846 0.92883,15.55825 -19.07703,44.97919 -35.4349,46.12151 -30.45729,-17.46273 -35.24158,-39.46416 -35.17305,-67.91201 0.0841,-34.8927 5.36255,-39.67869 -28.25746,-55.89684 -27.69305,-13.35901 3.99684,-51.02102 -32.25415,-58.21169 22.42522,29.63331 -8.27102,58.71604 28.44389,70.22762 29.45462,9.23519 9.13755,56.0558 16.74121,80.81403 5.1804,16.86788 0.31725,37.37574 7.5542,46.02281 -37.81232,15.40638 -33.19751,-21.57333 -51.9345,-34.42947 -32.97231,-22.62352 -32.35157,-23.00669 -27.35343,-35.24875 -25.17047,25.94767 13.0151,32.49442 14.03671,58.10235 0.89724,22.49039 38.33104,29.02025 39.63952,57.64286 2.92069,63.88871 7.64768,48.94501 -6.40846,78.22528 6.08056,23.05465 232.589135,7.44685 142.84905,-4.85208 z"
         style="fill:#4f553b;fill-opacity:1;stroke:none" />
      <path
         sodipodi:nodetypes="cssscsssscssssssccc"
         inkscape:connector-curvature="0"
         id="path7162-8"
         d="m -503.482,586.35882 c -56.23729,-7.62542 -67.42265,-53.4675 -54.18888,-83.82317 18.83531,-43.20447 0.91722,-88.32853 7.82014,-131.99513 5.51854,-34.90931 56.19471,-48.72092 69.97199,-86.01242 10.60521,-28.70554 46.06645,-23.08317 44.79573,-51.25136 -14.97265,24.38141 -53.41547,26.36508 -67.50406,59.63349 -11.14194,26.31028 -72.40971,20.13947 -92.21552,47.8417 -24.43708,34.17996 -60.76846,-36.91604 -121.89864,-26.24854 -49.79517,8.6895 -31.70908,-37.38807 -63.51529,-56.17366 -30.06888,-17.75947 -80.63294,-10.05539 -38.58437,-10.31011 53.29423,11.07486 17.02317,54.96818 63.05786,74.66039 34.42627,14.72649 91.43982,-0.85721 107.37104,30.47603 7.93833,15.61297 47.36779,66.19469 9.32758,57.63048 -36.6056,-8.24122 -35.79447,-21.96366 -81.18615,-23.73577 -45.96221,-1.79439 -88.41587,-1.53736 -41.09995,2.87333 33.41839,3.11518 75.66783,5.41996 103.86943,28.37725 31.74541,25.84212 9.60032,65.27611 16.23742,96.95633 2.65402,28.91114 -20.75985,59.64243 -26.69643,82.57788 74.77851,7.8792 105.13136,-5.04338 163.81661,-11.47672"
         style="fill:#4f553b;fill-opacity:1;stroke:none" />
      <path
         sodipodi:nodetypes="csssssssssssscc"
         inkscape:connector-curvature="0"
         id="path7168-9"
         d="m -892.73044,588.9118 c -56.21531,-2.25067 -43.07042,-51.79323 -13.78251,-70.12848 34.18276,-21.3996 8.44762,-36.46764 61.11483,-57.59267 11.61317,-4.65809 60.53039,-8.03502 20.01817,-6.24219 -49.41304,2.18673 -53.72661,12.36388 -76.44153,27.45663 -16.29366,10.82618 -37.12355,28.73829 -34.52292,3.41214 3.11576,-30.34303 -3.78713,-54.02634 5.82989,-78.92149 8.11907,-21.01749 -25.76092,16.93679 -23.17748,46.34035 1.62642,18.5114 -15.45658,62.89002 -27.34716,36.08802 -10.39128,-23.42244 -8.58188,-50.64916 -26.07785,-71.50647 -36.5756,-43.60239 0.693,1.71464 3.1117,34.37652 1.2846,17.34684 9.36231,50.01738 -16.9635,33.86997 -34.4882,-21.15398 -10.3738,-11.76961 7.0758,33.319 9.6317,24.88763 5.8809,50.12824 -2.7367,71.18668 38.46578,10.21127 83.06912,-3.32913 123.24229,-0.6991"
         style="fill:#4f553b;fill-opacity:1;stroke:none" />
      <path
         sodipodi:nodetypes="csssscsssczssssssscc"
         inkscape:connector-curvature="0"
         id="path7170-2"
         d="m -1166.4172,596.68517 c -26.544,-33.91234 -8.4644,-73.18353 -7.2534,-109.25805 1.0878,-32.40416 45.3735,-55.31412 45.2658,-87.51337 -0.1082,-32.34719 49.5078,-50.58961 90.8514,-56.41507 26.8548,-3.78393 22.2278,16.22091 56.0886,15.57308 36.11319,-0.69092 106.29902,-11.27173 73.20745,-11.99476 -48.06698,-4.33236 -70.49441,5.2307 -96.59655,-13.31763 -36.0756,-25.63552 -103.8023,27.51179 -133.1157,16.81748 -31.9798,-11.66705 21.5931,-50.9636 -11.9814,-71.69965 -13.0877,-8.08309 -18.2493,-15.97931 -21.2431,-34.08493 -19.8225,20.0115 28.0463,43.88082 12.8878,59.62962 -15.1585,15.7488 -13.5368,70.42463 -49.1225,49.57275 -29.4602,-17.26253 -7.2204,-44.22272 -19.9875,-68.49064 -8.4972,-16.15152 -50.4555,-38.35881 -54.8745,-60.81896 -6.2595,-31.81452 -6.5701,31.86149 13.843,45.95726 27.0214,18.65896 14.6977,35.72276 15.9739,61.3408 1.4692,29.49373 23.914,62.09728 3.3235,93.97188 -20.6753,32.00579 -20.3058,68.35212 -20.1153,102.85834 0.1256,22.7506 -40.5139,89.56024 19.5767,69.69378 25.2202,-2.46909 59.2142,4.09539 83.2718,-1.82193 z"
         style="fill:#4f553b;fill-opacity:1;stroke:none" />
      <rect
         y="619.21875"
         x="-1315.6313"
         height="133.14349"
         width="1217.976"
         id="rect7154"
         style="fill:#6b7350;fill-opacity:1;fill-rule:nonzero;stroke:none" />
      <path
         sodipodi:nodetypes="csscssssscsscsscsscscsscc"
         inkscape:connector-curvature="0"
         id="path7156"
         d="m -1235.9581,614.87174 c 10.4795,-41.85141 -3.5113,-118.89603 -40.274,-137.25678 -22.6416,-11.30817 -22.3732,-24.00983 -31.9231,-50.04934 -12.5834,-34.31112 6.5876,-35.78046 8.5824,-67.59188 12.0887,18.61513 -2.0368,43.15451 8.5534,60.05126 9.1816,14.64942 8.7584,23.9965 31.1344,28.14486 22.0264,4.08354 44.6546,38.66198 38.6285,3.64524 -5.5349,-32.16181 -14.6515,-58.05859 1.0024,-93.29295 13.6096,-30.63279 -19.1625,-60.36201 2.0882,-92.96412 6.3477,-9.73836 -19.5985,-55.73458 -0.3129,-23.59409 12.815,24.65479 -1.3634,27.37608 7.1943,52.63832 11.4067,33.67232 9.2365,66.92689 7.8185,96.3378 -0.9301,19.29057 19.1026,55.76939 35.4824,57.18575 30.498,-21.65192 35.2887,-48.93135 35.2201,-84.20364 -0.084,-43.26322 -5.3697,-49.19735 28.2953,-69.30612 27.7301,-16.56374 -4.0022,-63.26061 32.2974,-72.17628 -22.4553,36.74215 8.282,72.80162 -28.482,87.07475 -29.4941,11.45065 -9.1498,69.50321 -16.7636,100.20078 -5.1874,20.91436 -0.3177,46.34192 -7.5644,57.06337 37.863,19.10226 33.242,-26.74863 52.0041,-42.68887 33.0164,-28.05075 32.3949,-28.52585 27.39,-43.70468 25.2042,32.17233 -13.0325,40.2896 -14.0555,72.0407 -0.8984,27.88568 -38.3823,35.98201 -39.6926,71.47099 -2.9246,79.21519 -7.6579,60.68659 6.4171,96.991 -6.0887,28.58531 -232.9006,9.2333 -143.0404,-6.01607 z"
         style="fill:#6b7350;fill-opacity:1;stroke:none" />
      <path
         sodipodi:nodetypes="cssscsssscssssssccc"
         inkscape:connector-curvature="0"
         id="path7162"
         d="m -910.83726,620.78919 c 56.3126,-9.45471 67.51294,-66.294 54.26145,-103.93178 -18.86054,-53.56893 -0.91845,-109.51795 -7.83061,-163.65987 -5.52593,-43.28382 -56.26997,-60.40874 -70.0657,-106.64622 -10.61941,-35.59181 -46.12813,-28.62067 -44.85571,-63.54622 14.9927,30.23036 53.487,32.68989 67.59446,73.93916 11.15686,32.62194 72.50668,24.97079 92.33901,59.31861 24.4698,42.3795 60.84984,-45.77195 122.06188,-32.54538 49.86184,10.77404 31.75154,-46.35723 63.60034,-69.64935 30.10915,-22.01985 80.74092,-12.46761 38.63604,-12.78344 -53.36559,13.73165 -17.04596,68.15468 -63.14231,92.57092 -34.47237,18.25927 -91.56227,-1.06285 -107.51482,37.78702 -7.94896,19.35842 -47.43122,82.07434 -9.34007,71.45564 36.65462,-10.21823 35.8424,-27.2326 81.29487,-29.42982 46.02376,-2.22485 88.53428,-1.90616 41.15499,3.56262 -33.46314,3.8625 -75.76916,6.72017 -104.00852,35.18477 -31.78793,32.04146 -9.61318,80.9354 -16.25917,120.21549 -2.65757,35.84673 20.78765,73.95024 26.73218,102.38776 -74.87865,9.76936 -105.27215,-6.25326 -164.03598,-14.22991"
         style="fill:#6b7350;fill-opacity:1;stroke:none" />
      <path
         sodipodi:nodetypes="csssssssssssscc"
         inkscape:connector-curvature="0"
         id="path7168"
         d="m -521.06755,623.95462 c 56.29059,-2.7906 43.12809,-64.21809 13.80096,-86.95183 -34.22854,-26.53323 -8.45893,-45.21598 -61.19668,-71.40877 -11.62871,-5.77553 -60.61144,-9.96257 -20.04497,-7.73965 49.47922,2.71131 53.79856,15.3299 76.5439,34.04329 16.31547,13.42331 37.17326,35.63242 34.56915,4.2307 -3.11994,-37.62213 3.7922,-66.9869 -5.8377,-97.85423 -8.12994,-26.05944 25.79542,20.99981 23.20852,57.45708 -1.6286,22.95217 15.47728,77.97691 27.38378,44.7453 10.4052,-29.04133 8.59337,-62.79955 26.11279,-88.66039 36.62454,-54.06231 -0.69391,2.12597 -3.11588,42.62322 -1.28633,21.50823 -9.37485,62.0162 16.98621,41.99514 34.53439,-26.22867 10.38773,-14.59305 -7.08526,41.312 -9.64459,30.85801 -5.88876,62.15368 2.74033,88.26389 -38.51727,12.66089 -83.18034,-4.12776 -123.40731,-0.86681"
         style="fill:#6b7350;fill-opacity:1;stroke:none" />
      <path
         sodipodi:nodetypes="csssscsssczssssssscc"
         inkscape:connector-curvature="0"
         id="path7170"
         d="m -247.01432,633.59276 c 26.57961,-42.04768 8.47574,-90.73976 7.26313,-135.46831 -1.08925,-40.17771 -45.4342,-68.58361 -45.32638,-108.50725 0.10834,-40.10706 -49.57408,-62.72571 -90.97308,-69.94865 -26.89074,-4.69167 -22.25759,20.11219 -56.16372,19.30895 -36.16155,-0.85667 -106.44137,-13.97574 -73.30548,-14.87222 48.13135,-5.37166 70.58881,6.48551 96.72591,-16.51244 36.12391,-31.78531 103.94134,34.11168 133.294,20.85188 32.02258,-14.4659 -21.6221,-63.18943 11.99742,-88.89991 13.10518,-10.02217 18.27371,-19.81265 21.27155,-42.26168 19.84904,24.81212 -28.08389,54.40753 -12.90511,73.93437 15.17879,19.52683 13.55493,87.31902 49.18833,61.46491 29.49964,-21.40369 7.23002,-54.83145 20.01428,-84.92107 8.50854,-20.02617 50.523,-47.56083 54.94796,-75.40902 6.26784,-39.44662 6.57892,39.50484 -13.86153,56.98209 -27.05758,23.13511 -14.71736,44.29241 -15.99528,76.05605 -1.47121,36.56908 -23.94601,76.99399 -3.32795,116.51509 20.70292,39.68376 20.33298,84.74933 20.14222,127.53336 -0.12577,28.20831 40.56812,111.04514 -19.60292,86.41285 -25.25403,-3.0614 -59.29354,5.07785 -83.38335,-2.259 z"
         style="fill:#6b7350;fill-opacity:1;stroke:none" />
      <rect
         ry="2.6010826"
         y="673.57025"
         x="-1316.1379"
         height="76.771591"
         width="1218.244"
         id="rect3003"
         style="fill:#54654f;fill-opacity:1;fill-rule:nonzero;stroke:none"
         rx="2.8728616" />
    </g>
  </g>
</svg>
