<?xml version="1.0" encoding="UTF-8" standalone="no"?>
<!-- Created with Inkscape (http://www.inkscape.org/) -->

<svg
   xmlns:dc="http://purl.org/dc/elements/1.1/"
   xmlns:cc="http://creativecommons.org/ns#"
   xmlns:rdf="http://www.w3.org/1999/02/22-rdf-syntax-ns#"
   xmlns:svg="http://www.w3.org/2000/svg"
   xmlns="http://www.w3.org/2000/svg"
   xmlns:sodipodi="http://sodipodi.sourceforge.net/DTD/sodipodi-0.dtd"
   xmlns:inkscape="http://www.inkscape.org/namespaces/inkscape"
   width="1216.0723"
   height="498.13364"
   id="svg7146"
   version="1.1"
   inkscape:version="0.48.4 r9939"
   sodipodi:docname="butt_hills.svg">
  <defs
     id="defs7148" />
  <sodipodi:namedview
     id="base"
     pagecolor="#ffffff"
     bordercolor="#666666"
     borderopacity="1.0"
     inkscape:pageopacity="0.0"
     inkscape:pageshadow="2"
     inkscape:zoom="0.7"
     inkscape:cx="545.57838"
     inkscape:cy="77.459581"
     inkscape:document-units="px"
     inkscape:current-layer="layer1"
     showgrid="false"
     showborder="false"
     inkscape:showpageshadow="false"
     inkscape:window-width="1280"
     inkscape:window-height="972"
     inkscape:window-x="-8"
     inkscape:window-y="-8"
     inkscape:window-maximized="1"
     fit-margin-top="0"
     fit-margin-left="0"
     fit-margin-right="0"
     fit-margin-bottom="0">
    <inkscape:grid
       type="xygrid"
       id="grid9040"
       empspacing="5"
       visible="true"
       enabled="true"
       snapvisiblegridlinesonly="true"
       originx="30.243976px"
       originy="48.417785px" />
  </sodipodi:namedview>
  <metadata
     id="metadata7151">
    <rdf:RDF>
      <cc:Work
         rdf:about="">
        <dc:format>image/svg+xml</dc:format>
        <dc:type
           rdf:resource="http://purl.org/dc/dcmitype/StillImage" />
        <dc:title />
      </cc:Work>
    </rdf:RDF>
  </metadata>
  <g
     inkscape:label="Layer 1"
     inkscape:groupmode="layer"
     id="layer1"
     transform="translate(1326.1788,-302.64628)">
    <g
       id="g3390">
      <g
         id="g11059">
        <rect
           style="fill:#cd4d2a;fill-opacity:1;fill-rule:nonzero;stroke:none"
           id="rect7154-7-8"
           width="1108.3208"
           height="120.48413"
           x="110.96448"
           y="530.17383"
           transform="scale(-1,1)">
          <rect
             style="fill:#cd4d2a;fill-opacity:1;fill-rule:nonzero;stroke:none"
             id="rect9138-3-3-3"
             width="20"
             height="240"
             x="-487.36343"
             y="278.07645">
            <rect
               style="fill:#cd4d2a;fill-opacity:1;fill-rule:nonzero;stroke:none"
               id="rect9138-2-9-7"
               width="20"
               height="240"
               x="-337.36343"
               y="356.64789" />
          </rect>
        </rect>
        <path
           sodipodi:type="arc"
           style="fill:#cd4d2a;fill-opacity:1;fill-rule:nonzero;stroke:none"
           id="path10786-5-5"
           sodipodi:cx="230.00008"
           sodipodi:cy="515.27332"
           sodipodi:rx="130"
           sodipodi:ry="130"
           d="m 100.00008,515.27331 c 0,-71.79702 58.20298,-130 130,-129.99999 71.79702,0 130,58.20298 130,129.99999 l -130,10e-6 z"
           transform="matrix(-0.91157669,0,0,0.91157669,-890.37878,14.81265)"
           sodipodi:start="3.1415927"
           sodipodi:end="6.2831853" />
        <path
           sodipodi:type="arc"
           style="fill:#cd4d2a;fill-opacity:1;fill-rule:nonzero;stroke:none"
           id="path10786-0-9-8"
           sodipodi:cx="230.00008"
           sodipodi:cy="515.27332"
           sodipodi:rx="130"
           sodipodi:ry="130"
           d="m 100.00008,515.27331 c 0,-71.79702 58.20298,-130 130,-129.99999 71.79702,0 130,58.20298 130,129.99999 l -130,10e-6 z"
           transform="matrix(-1.397417,0,0,1.397417,-468.98278,-185.02028)"
           sodipodi:start="3.1415927"
           sodipodi:end="6.2831853" />
        <path
           sodipodi:type="arc"
           style="fill:#cd4d2a;fill-opacity:1;fill-rule:nonzero;stroke:none"
           id="path10786-7-2-1"
           sodipodi:cx="230.00008"
           sodipodi:cy="515.27332"
           sodipodi:rx="130"
           sodipodi:ry="130"
           d="m 100.00008,515.27331 c 0,-71.79702 58.20298,-130 130,-129.99999 71.79702,0 130,58.20298 130,129.99999 l -130,10e-6 z"
           transform="matrix(-1.8331707,0,0,1.8331707,72.387651,-403.62547)"
           sodipodi:start="3.1415927"
           sodipodi:end="6.2831853" />
        <rect
           style="fill:#e86845;fill-opacity:1;fill-rule:nonzero;stroke:none"
           id="rect7154-7"
           width="1108.3208"
           height="120.48413"
           x="217.858"
           y="563.50378"
           transform="scale(-1,1)">
          <rect
             style="fill:#e86845;fill-opacity:1;fill-rule:nonzero;stroke:none"
             id="rect9138-3-3"
             width="20"
             height="240"
             x="-487.36343"
             y="278.07645">
            <rect
               style="fill:#e86845;fill-opacity:1;fill-rule:nonzero;stroke:none"
               id="rect9138-2-9"
               width="20"
               height="240"
               x="-337.36343"
               y="356.64789" />
          </rect>
        </rect>
        <path
           sodipodi:type="arc"
           style="fill:#e86845;fill-opacity:1;fill-rule:nonzero;stroke:none"
           id="path10786-5"
           sodipodi:cx="230.00008"
           sodipodi:cy="515.27332"
           sodipodi:rx="130"
           sodipodi:ry="130"
           d="m 100.00008,515.27331 c 0,-71.79702 58.20298,-130 130,-129.99999 71.79702,0 130,58.20298 130,129.99999 l -130,10e-6 z"
           transform="matrix(-0.91157669,0,0,0.91157669,-127.02589,94.609604)"
           sodipodi:start="3.1415927"
           sodipodi:end="6.2831853" />
        <path
           sodipodi:type="arc"
           style="fill:#e86845;fill-opacity:1;fill-rule:nonzero;stroke:none"
           id="path10786-0-9"
           sodipodi:cx="230.00008"
           sodipodi:cy="515.27332"
           sodipodi:rx="130"
           sodipodi:ry="130"
           d="m 100.00008,515.27331 c 0,-71.79702 58.20298,-130 130,-129.99999 71.79702,0 130,58.20298 130,129.99999 l -130,10e-6 z"
           transform="matrix(-1.397417,0,0,1.397417,-822.35353,-155.73095)"
           sodipodi:start="3.1415927"
           sodipodi:end="6.2831853" />
        <path
           sodipodi:type="arc"
           style="fill:#e86845;fill-opacity:1;fill-rule:nonzero;stroke:none"
           id="path10786-7-2"
           sodipodi:cx="230.00008"
           sodipodi:cy="515.27332"
           sodipodi:rx="130"
           sodipodi:ry="130"
           d="m 100.00008,515.27331 c 0,-71.79702 58.20298,-130 130,-129.99999 71.79702,0 130,58.20298 130,129.99999 l -130,10e-6 z"
           transform="matrix(-1.8331707,0,0,1.8331707,-291.08463,-376.35645)"
           sodipodi:start="3.1415927"
           sodipodi:end="6.2831853" />
        <rect
           style="fill:#ff8563;fill-opacity:1;fill-rule:nonzero;stroke:none"
           id="rect7154"
           width="1215.8284"
           height="132.17114"
           x="-1325.9349"
           y="668.60876">
          <rect
             style="fill:#ff8563;fill-opacity:1;fill-rule:nonzero;stroke:none"
             id="rect9138-3"
             width="20"
             height="240"
             x="-487.36343"
             y="278.07645">
            <rect
               style="fill:#ff8563;fill-opacity:1;fill-rule:nonzero;stroke:none"
               id="rect9138-2"
               width="20"
               height="240"
               x="-337.36343"
               y="356.64789" />
          </rect>
        </rect>
        <path
           sodipodi:type="arc"
           style="fill:#ff8563;fill-opacity:1;fill-rule:nonzero;stroke:none"
           id="path10786"
           sodipodi:cx="230.00008"
           sodipodi:cy="515.27332"
           sodipodi:rx="130"
           sodipodi:ry="130"
           d="m 100.00008,515.27331 c 0,-71.79702 58.20298,-130 130,-129.99999 71.79702,0 130,58.20298 130,129.99999 l -130,10e-6 z"
           transform="translate(-1425.5778,154.23167)"
           sodipodi:start="3.1415927"
           sodipodi:end="6.2831853" />
        <path
           sodipodi:type="arc"
           style="fill:#ff8563;fill-opacity:1;fill-rule:nonzero;stroke:none"
           id="path10786-0"
           sodipodi:cx="230.00008"
           sodipodi:cy="515.27332"
           sodipodi:rx="130"
           sodipodi:ry="130"
           d="m 100.00008,515.27331 c 0,-71.79702 58.20298,-130 130,-129.99999 71.79702,0 130,58.20298 130,129.99999 l -130,10e-6 z"
           transform="matrix(1.532967,0,0,1.532967,-662.80314,-120.39202)"
           sodipodi:start="3.1415927"
           sodipodi:end="6.2831853" />
        <path
           sodipodi:type="arc"
           style="fill:#ffab94;fill-opacity:1;fill-rule:nonzero;stroke:none"
           id="path10786-1"
           sodipodi:cx="230.00008"
           sodipodi:cy="515.27332"
           sodipodi:rx="130"
           sodipodi:ry="130"
           d="m 100.00008,515.27331 c 0,-71.79702 58.20298,-130 130,-129.99999 71.79702,0 130,58.20298 130,129.99999 l -130,10e-6 z"
           transform="translate(-503.07777,105.66024)"
           sodipodi:start="3.1415927"
           sodipodi:end="6.2831853" />
        <path
           sodipodi:type="arc"
           style="fill:#ff8563;fill-opacity:1;fill-rule:nonzero;stroke:none"
           id="path10786-7"
           sodipodi:cx="230.00008"
           sodipodi:cy="515.27332"
           sodipodi:rx="130"
           sodipodi:ry="130"
           d="m 100.00008,515.27331 c 0,-71.79702 58.20298,-130 130,-129.99999 71.79702,0 130,58.20298 130,129.99999 l -130,10e-6 z"
           transform="matrix(2.010989,0,0,2.010989,-1245.6053,-362.41828)"
           sodipodi:start="3.1415927"
           sodipodi:end="6.2831853" />
        <path
           sodipodi:type="arc"
           style="fill:#ffab94;fill-opacity:1;fill-rule:nonzero;stroke:none"
           id="path10786-70"
           sodipodi:cx="230.00008"
           sodipodi:cy="515.27332"
           sodipodi:rx="130"
           sodipodi:ry="130"
           d="m 100.00008,515.27331 c 0,-71.79702 58.20298,-130 130,-129.99999 71.79702,0 130,58.20298 130,129.99999 l -130,10e-6 z"
           transform="matrix(1.3296703,0,0,1.3296703,-1120.3306,-79.92437)"
           sodipodi:start="3.1415927"
           sodipodi:end="6.2831853" />
        <path
           sodipodi:type="arc"
           style="fill:#ffab94;fill-opacity:1;fill-rule:nonzero;stroke:none"
           id="path10786-24"
           sodipodi:cx="230.00008"
           sodipodi:cy="515.27332"
           sodipodi:rx="130"
           sodipodi:ry="130"
           d="m 100.00008,515.27331 c 0,-71.79702 58.20298,-130 130,-129.99999 71.79702,0 130,58.20298 130,129.99999 l -130,10e-6 z"
           transform="matrix(0.82417582,0,0,0.82417582,-1369.781,249.11489)"
           sodipodi:start="3.1415927"
           sodipodi:end="6.2831853" />
        <path
           sodipodi:type="arc"
           style="fill:#ffd3c7;fill-opacity:1;fill-rule:nonzero;stroke:none"
           id="path10786-24-1"
           sodipodi:cx="230.00008"
           sodipodi:cy="515.27332"
           sodipodi:rx="130"
           sodipodi:ry="130"
           d="m 149.25086,413.39317 c 56.26685,-44.59656 138.0328,-35.13592 182.62936,21.13093 6.58512,8.30834 12.1292,17.39101 16.50873,27.04564"
           transform="matrix(0.71962772,-0.40174834,0.40174834,0.71962772,-1198.7076,280.62475)"
           sodipodi:start="4.0421825"
           sodipodi:end="5.857325"
           sodipodi:open="true" />
        <path
           sodipodi:type="arc"
           style="fill:#ffd3c7;fill-opacity:1;fill-rule:nonzero;stroke:none"
           id="path10786-24-1-0"
           sodipodi:cx="230.00008"
           sodipodi:cy="515.27332"
           sodipodi:rx="130"
           sodipodi:ry="130"
           d="m 186.60519,392.72992 c 63.62145,-22.52953 133.90222,7.3753 161.78376,68.83982"
           transform="matrix(0.82417582,0,0,0.82417582,-448.52188,201.04388)"
           sodipodi:start="4.3720498"
           sodipodi:end="5.857325"
           sodipodi:open="true" />
        <path
           sodipodi:type="arc"
           style="fill:#ffd3c7;fill-opacity:1;fill-rule:nonzero;stroke:none"
           id="path10786-24-1-3"
           sodipodi:cx="230.00008"
           sodipodi:cy="515.27332"
           sodipodi:rx="130"
           sodipodi:ry="130"
           d="m 149.25086,413.39317 c 56.26685,-44.59656 138.0328,-35.13592 182.62936,21.13093 6.58512,8.30834 12.1292,17.39101 16.50873,27.04564"
           transform="matrix(0.6465772,0.10075376,-0.10075376,0.6465772,-1271.7075,315.10033)"
           sodipodi:start="4.0421825"
           sodipodi:end="5.857325"
           sodipodi:open="true" />
      </g>
      <rect
         ry="3.0812576"
         transform="translate(-1326.1788,302.64628)"
         y="408.13364"
         x="2.8571429"
         height="90"
         width="1214.2858"
         id="rect3386"
         style="opacity:0.5;fill:#cd4d2a;fill-opacity:1;fill-rule:nonzero;stroke:none" />
    </g>
  </g>
</svg>
