<?xml version="1.0" encoding="UTF-8" standalone="no"?>
<!-- Created with Inkscape (http://www.inkscape.org/) -->

<svg
   xmlns:dc="http://purl.org/dc/elements/1.1/"
   xmlns:cc="http://creativecommons.org/ns#"
   xmlns:rdf="http://www.w3.org/1999/02/22-rdf-syntax-ns#"
   xmlns:svg="http://www.w3.org/2000/svg"
   xmlns="http://www.w3.org/2000/svg"
   xmlns:sodipodi="http://sodipodi.sourceforge.net/DTD/sodipodi-0.dtd"
   xmlns:inkscape="http://www.inkscape.org/namespaces/inkscape"
   width="309.08411"
   height="519.82892"
   id="svg3812"
   version="1.1"
   inkscape:version="0.48.4 r9939"
   sodipodi:docname="cat.svg">
  <defs
     id="defs3814" />
  <sodipodi:namedview
     id="base"
     pagecolor="#ffffff"
     bordercolor="#666666"
     borderopacity="1.0"
     inkscape:pageopacity="0.0"
     inkscape:pageshadow="2"
     inkscape:zoom="0.70710678"
     inkscape:cx="251.22515"
     inkscape:cy="371.11458"
     inkscape:document-units="px"
     inkscape:current-layer="g7074"
     showgrid="false"
     inkscape:showpageshadow="false"
     showborder="false"
     fit-margin-top="0"
     fit-margin-left="0"
     fit-margin-right="0"
     fit-margin-bottom="0"
     inkscape:window-width="1280"
     inkscape:window-height="972"
     inkscape:window-x="-8"
     inkscape:window-y="-8"
     inkscape:window-maximized="1" />
  <metadata
     id="metadata3817">
    <rdf:RDF>
      <cc:Work
         rdf:about="">
        <dc:format>image/svg+xml</dc:format>
        <dc:type
           rdf:resource="http://purl.org/dc/dcmitype/StillImage" />
        <dc:title />
      </cc:Work>
    </rdf:RDF>
  </metadata>
  <g
     inkscape:groupmode="layer"
     id="layer3"
     inkscape:label="2"
     transform="translate(-160,-314.53327)">
    <g
       id="g7074">
      <g
         id="g7119">
        <path
           transform="matrix(0.51393901,0,0,0.71856287,128.28806,224.76061)"
           d="m 442,808.36218 a 151,40 0 1 1 -302,0 151,40 0 1 1 302,0 z"
           sodipodi:ry="40"
           sodipodi:rx="151"
           sodipodi:cy="808.36218"
           sodipodi:cx="291"
           id="path4483"
           style="fill:#313220;fill-opacity:0.44748858000000002;fill-rule:nonzero;stroke:none"
           sodipodi:type="arc" />
        <path
           inkscape:connector-curvature="0"
           id="path4407"
           d="m 332.71172,334.80701 16.4243,6.1591 15.91103,11.80497 2.56629,6.67237 0.51327,9.23866 9.23866,7.95552 -2.05304,14.37126 -4.3627,7.95552 -9.75193,5.64584 -12.57485,2.05305 -7.69889,10.00855 1.02653,18.73396 -67.75022,-29.25578 5.13259,-18.73396 3.59282,-20.27373 9.49529,-14.62789 8.98204,-11.03507 14.37125,-7.95552 z"
           style="fill:#f6a824;fill-opacity:1;fill-rule:nonzero;stroke:none" />
        <path
           inkscape:connector-curvature="0"
           id="path4409"
           d="m 327.57913,314.53327 2.30966,5.90248 0.76989,9.49529 2.5663,8.98204 -6.15911,-1.28315 -10.52182,9.23867 -7.44225,5.90248 -0.76989,-10.26519 1.53978,-11.54833 5.64585,-9.23866 z"
           style="fill:#f9c46b;fill-opacity:1;fill-rule:nonzero;stroke:none" />
        <path
           inkscape:connector-curvature="0"
           id="path4411"
           d="m 357.34816,324.79845 -1.02651,10.26519 -1.02653,11.2917 -13.60137,-7.18563 1.79641,-4.87596 5.38922,-4.61933 z"
           style="fill:#eba90a;fill-opacity:1;fill-rule:nonzero;stroke:none" />
        <path
           inkscape:connector-curvature="0"
           id="path4433"
           d="m 339.76903,360.85491 4.23439,-3.97776 6.67237,0.25663 2.82293,1.02652 5.13259,11.16339 -1.02652,2.18135 -7.95552,0.12832 -4.10607,-0.25664 -6.0308,-3.97775 z"
           style="fill:#ffffff;fill-opacity:1;fill-rule:nonzero;stroke:none" />
        <path
           inkscape:connector-curvature="0"
           id="path4413"
           d="m 356.8349,369.70863 -2.43798,-4.74765 -3.07955,-5.77416 -4.74765,-1.02652 -2.95124,1.02652 -3.20787,4.10607 0.25663,2.69461 6.28742,4.10608 z"
           style="fill:#f8f150;fill-opacity:1;fill-rule:nonzero;stroke:none" />
        <path
           inkscape:connector-curvature="0"
           id="path4431"
           d="m 370.73693,381.79224 -7.05732,-2.05303 -9.23867,7.8272 0.89821,9.49529 9.11035,3.97776 4.10607,-1.28315 2.69461,-2.82292 3.20788,-5.77416 1.28314,-6.28743 0,-2.82292 -1.7964,-0.64158 z"
           style="fill:#ffffff;fill-opacity:1;fill-rule:nonzero;stroke:none" />
        <path
           inkscape:connector-curvature="0"
           id="path4415"
           d="m 370.56459,378.9473 2.95124,-1.28315 3.20786,-0.25663 -3.46449,4.87596 z"
           style="fill:#f77e3a;fill-opacity:1;fill-rule:nonzero;stroke:none" />
        <path
           inkscape:connector-curvature="0"
           id="path4417"
           d="m 373.13088,382.54011 -0.64157,6.28743 -2.05304,4.87596 -8.85372,2.05303 -5.38922,-1.7964 5.00427,2.30967 9.4953,-2.18135 2.30967,0.64157 -1.92473,-1.28315 1.79641,-4.87597 z"
           style="fill:#f77e3a;fill-opacity:1;fill-rule:nonzero;stroke:none" />
        <path
           inkscape:connector-curvature="0"
           id="path4419"
           d="m 351.57399,361.23985 0.89821,3.84945 -0.64157,2.69461 -2.43799,1.66809 -0.12831,-4.74764 z"
           style="fill:#1f0c01;fill-opacity:1;fill-rule:nonzero;stroke:none" />
        <path
           inkscape:connector-curvature="0"
           id="path4421"
           d="m 274.76403,403.06381 18.50939,10.88788 21.04988,8.34736 27.21968,10.16202 0.72586,6.53272 -3.6293,3.6293 -29.76017,-14.15424 -16.69474,-5.44393 -15.96888,-9.07323 -4.35515,0.36293 -1.45171,-6.53273 z"
           style="fill:#0788bd;fill-opacity:1;fill-rule:nonzero;stroke:none" />
        <path
           inkscape:connector-curvature="0"
           id="path4425-1"
           d="m 309.15203,468.78797 43.46728,-10.23713 44.33567,-8.86592 12.79756,11.10706 -4.31511,15.02823 -15.66833,3.77496 -7.73345,-4.32406 -60.14127,18.49131 -17.31412,16.34422 -20.60411,-16.15327 -10.42962,-23.74945 z"
           style="fill:#4ac5f8;fill-opacity:1;fill-rule:nonzero;stroke:none" />
        <path
           inkscape:connector-curvature="0"
           id="path4453"
           d="m 248.28058,706.6633 -17.45081,36.95466 -20.53037,42.08725 -27.716,7.18563 -19.50385,8.21215 -3.07955,16.42429 15.39777,10.26519 20.53037,-10.26519 22.58341,-9.23866 16.42429,-13.34474 9.23867,-28.74252 11.2917,-25.66296 z"
           style="fill:#f6a824;fill-opacity:1;fill-rule:nonzero;stroke:none" />
        <path
           inkscape:connector-curvature="0"
           id="path4423"
           d="m 271.49767,411.77411 52.26178,20.32403 17.4206,11.61373 5.081,24.67918 -0.72585,27.5826 -6.53272,25.40503 3.62929,43.5515 -3.62929,39.92219 -7.25859,34.11533 7.25859,82.74783 -1.45172,17.42059 -10.88788,26.85675 23.22746,26.13089 3.6293,10.88787 -7.98444,4.35516 -52.26178,-41.37392 7.25857,-32.66361 -12.33958,-21.04989 -12.3396,19.59817 -2.90343,42.09977 -21.04988,49.35835 -11.61373,0 -3.62929,-13.06544 11.61373,-33.38948 -7.25858,-45.0032 0.72586,-19.59817 -10.16202,-42.82563 -3.62929,-86.37711 5.08101,-71.1341 14.51716,-46.45492 10.88787,-44.27735 z"
           style="fill:#6bd0f9;fill-opacity:1;fill-rule:nonzero;stroke:none" />
        <path
           inkscape:connector-curvature="0"
           id="path4425"
           d="m 314.74262,486.39962 28.21943,34.6102 27.36623,35.99092 -4.39012,16.36677 -15.40174,2.69333 -10.24836,-12.43857 0.50563,-8.8458 -42.93566,-45.9938 -22.27125,-8.42044 5.51318,-25.59419 16.79464,-19.76749 z"
           style="fill:#98defb;fill-opacity:1;fill-rule:nonzero;stroke:none" />
        <path
           inkscape:connector-curvature="0"
           id="path4427"
           d="m 278.78355,503.08191 2.30389,-18.59352 6.67864,-14.62278 8.07273,-11.58099 3.19089,-0.5964 2.49003,4.48813 0.10446,-8.2754 -7.94282,-6.27596 -11.12345,11.16048 -11.22791,19.43587 0.29952,16.62087 2.35877,7.31967 z"
           style="fill:#0788bd;fill-opacity:1;fill-rule:nonzero;stroke:none" />
        <path
           transform="matrix(0.71856287,0,0,0.71856287,35.63008,234.05834)"
           d="m 428.15316,315.55692 a 13.081475,24.748737 0 1 1 -26.16295,0 13.081475,24.748737 0 1 1 26.16295,0 z"
           sodipodi:ry="24.748737"
           sodipodi:rx="13.081475"
           sodipodi:cy="315.55692"
           sodipodi:cx="415.07169"
           id="path4481"
           style="fill:#f7fca9;fill-opacity:1;fill-rule:nonzero;stroke:none"
           sodipodi:type="arc" />
        <path
           style="fill:#4a5f7a;fill-opacity:1;fill-rule:nonzero;stroke:none"
           d="m 445.45911,455.08706 -0.12447,-6.11021 -10.49946,0.14074 0.37409,3.2605 -22.50016,0.209 -0.25,-6.625 -13.25027,-0.0439 -3.12452,-5.14527 -15.77221,-0.0366 3.25038,4.93622 -8.85338,0.16455 -10.25,11.25 0,16 12.5,6 -9,17.5 6.375,8.5 11.5,-2.125 5.5,-19.5 1.625,-4.625 11.5,0 4.625,-4.375 0.125,-6.875 34,0 1.75,-2.875 -1.5,-3.625 7.625,0.125 0.75,-3.25 -1,-2.75 z"
           id="path6380"
           inkscape:connector-curvature="0"
           sodipodi:nodetypes="ccccccccccccccccccccccccccccc" />
        <path
           style="fill:#3b4d63;fill-opacity:1;fill-rule:nonzero;stroke:none"
           d="m 375.70911,447.58706 34.875,-0.25 0.5,9.375 39.25,-0.375 0.25,3.75 -9,0.25 0.25,5.75 -31.875,-0.25 -2.75,1.875 -13.375,-0.125 -9.625,33.625 -9,2 -5,-6.5 8.375,-17.5 0.125,-4.75 -8.125,0.125 -0.25,-2.25 8,-0.25 -0.25,-1.75 -12.25,0.25 0,-2.75 12,-0.125 -11.75,-10.375 z"
           id="path6382"
           inkscape:connector-curvature="0" />
        <path
           sodipodi:type="arc"
           style="fill:#3b4d63;fill-opacity:1;fill-rule:nonzero;stroke:none"
           id="path6384"
           sodipodi:cx="335.25"
           sodipodi:cy="143.26642"
           sodipodi:rx="2.375"
           sodipodi:ry="1.9375"
           d="m 337.625,143.26642 a 2.375,1.9375 0 1 1 -4.75,0 2.375,1.9375 0 1 1 4.75,0 z"
           transform="translate(34.20911,321.00814)" />
        <path
           sodipodi:type="arc"
           style="fill:#3b4d63;fill-opacity:1;fill-rule:nonzero;stroke:none"
           id="path6386"
           sodipodi:cx="342"
           sodipodi:cy="155.39142"
           sodipodi:rx="0.875"
           sodipodi:ry="0.6875"
           d="m 342.875,155.39142 a 0.875,0.6875 0 1 1 -1.75,0 0.875,0.6875 0 1 1 1.75,0 z"
           transform="translate(34.20911,321.00814)" />
        <path
           style="fill:#4a5f7a;fill-opacity:1;fill-rule:nonzero;stroke:none"
           d="m 410.83411,461.71206 30.125,-0.125 0,3 -30.125,-0.125 z"
           id="path6388"
           inkscape:connector-curvature="0" />
        <path
           inkscape:connector-curvature="0"
           style="fill:#4a5f7a;fill-opacity:1;fill-rule:nonzero;stroke:none"
           d="m 409.46875,448.34577 -17.125,0.125 -0.125,9.125 17.25,0.25 0.125,-2 -16.375,-0.25 0,-1.375 16.125,0.375 0,-2.5 -16.25,0 0,-1.875 16.375,0.125 0,-2 z"
           id="path6390" />
        <path
           sodipodi:type="arc"
           style="fill:#4a5f7a;fill-opacity:1;fill-rule:nonzero;stroke:none"
           id="path6392"
           sodipodi:cx="347.4375"
           sodipodi:cy="137.14142"
           sodipodi:rx="8.3125"
           sodipodi:ry="3.3125"
           d="m 355.75,137.14142 a 8.3125,3.3125 0 1 1 -16.625,0 8.3125,3.3125 0 1 1 16.625,0 z"
           transform="translate(34.20911,321.00814)" />
        <path
           style="fill:#4ac5f8;fill-opacity:1;fill-rule:nonzero;stroke:none"
           d="m 407.33411,468.83706 0.125,5.25 -3.25,2.875 -10.875,0 1.5,-4.375 5.875,2.5 3,0 -7.25,-6.375 z"
           id="path6394"
           inkscape:connector-curvature="0" />
      </g>
    </g>
  </g>
</svg>
