<?xml version="1.0" encoding="UTF-8" standalone="no"?>
<!-- Created with Inkscape (http://www.inkscape.org/) -->

<svg
   xmlns:dc="http://purl.org/dc/elements/1.1/"
   xmlns:cc="http://creativecommons.org/ns#"
   xmlns:rdf="http://www.w3.org/1999/02/22-rdf-syntax-ns#"
   xmlns:svg="http://www.w3.org/2000/svg"
   xmlns="http://www.w3.org/2000/svg"
   xmlns:sodipodi="http://sodipodi.sourceforge.net/DTD/sodipodi-0.dtd"
   xmlns:inkscape="http://www.inkscape.org/namespaces/inkscape"
   width="400"
   height="404.01337"
   id="svg2"
   version="1.1"
   inkscape:version="0.48.4 r9939"
   sodipodi:docname="enemy_butt.svg">
  <defs
     id="defs4" />
  <sodipodi:namedview
     id="base"
     pagecolor="#ffffff"
     bordercolor="#666666"
     borderopacity="1.0"
     inkscape:pageopacity="0.0"
     inkscape:pageshadow="2"
     inkscape:zoom="0.6125"
     inkscape:cx="314.72996"
     inkscape:cy="530.01596"
     inkscape:document-units="px"
     inkscape:current-layer="layer1"
     showgrid="false"
     showborder="false"
     inkscape:showpageshadow="false"
     fit-margin-top="0"
     fit-margin-left="0"
     fit-margin-right="0"
     fit-margin-bottom="0"
     inkscape:window-width="1280"
     inkscape:window-height="972"
     inkscape:window-x="-8"
     inkscape:window-y="-8"
     inkscape:window-maximized="1" />
  <metadata
     id="metadata7">
    <rdf:RDF>
      <cc:Work
         rdf:about="">
        <dc:format>image/svg+xml</dc:format>
        <dc:type
           rdf:resource="http://purl.org/dc/dcmitype/StillImage" />
        <dc:title />
      </cc:Work>
    </rdf:RDF>
  </metadata>
  <g
     inkscape:label="Layer 1"
     inkscape:groupmode="layer"
     id="layer1"
     transform="translate(3705.4271,-1393.1361)">
    <g
       id="g3942"
       transform="matrix(0.57865155,0,0,0.57865155,-1561.276,757.22612)">
      <path
         sodipodi:nodetypes="ccccccccccccccccccccc"
         inkscape:connector-curvature="0"
         id="path3839-7"
         d="m -3492.4127,1212.5581 -46.5416,-2.3952 -40.0619,4.0818 -32.2868,13.3238 -37.7853,13.1315 -56.3388,14.2322 41.8877,5.7023 30.9257,-1.7146 -55.9877,10.1314 33.915,6.557 35.0345,-1.4366 -56.6289,9.6756 47.9118,8.001 21.4677,-4.8386 25.1538,-16.2167 20.4618,-20.9525 32.4285,-2.7462 20.6335,-15.6225 19.3228,-4.5693 4.1805,-6.6126 z"
         style="fill:#fff6f6;fill-opacity:1;fill-rule:nonzero;stroke:none" />
      <path
         sodipodi:nodetypes="ssssssacsaacsaasssccccss"
         inkscape:connector-curvature="0"
         id="path2989"
         d="m -3464.4674,1461.4226 c -14.6251,-24.231 -23.7199,-38.1444 -43.7399,-56.0331 l -22.1672,-19.8074 c -18.0344,-16.1145 -30.8342,-33.7121 -36.363,-56.3579 -5.3095,-21.7473 -8.1257,-44.1334 -4.3767,-66.1815 5.6763,-33.3832 26.9869,-58.2997 53.2708,-78.2324 27.9578,-21.2022 52.0012,-26.4211 80.3728,-29.4435 15.7226,-1.6749 46.9778,6.5674 46.9778,6.5674 0,0 5.204,-8.3009 8.7078,-11.653 8.0729,-7.7234 17.464,-14.402 27.7101,-18.8561 31.3182,-13.6142 65.9067,-25.6702 99.9195,-22.62 26.3902,2.3667 37.5647,5.7649 73.1669,31.0646 1.9803,3.4254 25.062,37.0512 25.9274,40.6963 7.7871,32.8002 9.476,64.8345 6.2537,97.1116 -1.5366,15.3918 -6.0824,30.5465 -12.0783,44.8055 -8.6438,20.5557 -21.6966,39.0139 -33.9803,57.6247 -12.3067,18.6456 -25.3342,36.8898 -39.7016,53.998 -13.8002,16.4328 -23.2314,27.2493 -44.4945,46.5251 -25.1282,22.7795 -41.38,32.2754 -69.9455,50.2067 l -43.0767,25.5332 -26.0546,14.9047 -6.6955,-25.7574 -12.7803,-29.3314 c -7.6619,-17.5843 -16.1619,-37.0516 -26.8527,-54.7641 z"
         style="fill:#ffcfc7;fill-opacity:1;fill-rule:nonzero;stroke:none" />
      <path
         sodipodi:nodetypes="csssscccssssc"
         inkscape:connector-curvature="0"
         id="path3022-1"
         d="m -3372.2852,1316.4058 c 0,0 -15.2111,-18.4057 -21.7804,-28.3477 -5.258,-7.9575 -10.5194,-16.0684 -14.035,-24.9346 -3.9053,-9.8492 -6.4544,-20.3268 -7.6272,-30.8568 -0.8596,-7.7175 -0.9642,-15.6604 0.4771,-23.2906 1.607,-8.5072 8.9771,-24.3722 8.9771,-24.3722 l 6.8615,-9.4111 -16.1208,18.9477 c 0,0 -8.9109,17.35 -10.0503,26.8328 -1.1764,9.7912 1.4798,19.7264 3.5188,29.3749 1.766,8.3565 3.7024,16.8517 7.5064,24.4988 4.0188,8.0793 9.5189,15.5179 15.8582,21.9398 7.7049,7.8056 26.4146,19.619 26.4146,19.619 z"
         style="fill:#ffb9ad;fill-opacity:1;fill-rule:nonzero;stroke:none" />
      <path
         sodipodi:nodetypes="ccssscccssscc"
         inkscape:connector-curvature="0"
         id="path3022"
         d="m -3361.0163,1329.1949 -24.182,-38.0739 c 0,0 -11.4118,-21.3763 -14.8323,-32.9137 -3.7998,-12.8165 -5.8245,-26.2702 -6.1138,-39.635 -0.212,-9.7951 0.55,-19.7884 3.2197,-29.2149 2.9764,-10.51 14.023,-29.6181 14.023,-29.6181 l 9.6813,-11.0548 -22.3899,21.9976 c 0,0 -13.15,20.8008 -15.6487,32.5895 -2.5798,12.172 -0.3595,24.9561 1.1175,37.3105 1.2792,10.7 2.757,21.5936 6.6771,31.6315 4.1415,10.6051 17.4605,29.3551 17.4605,29.3551 z"
         style="fill:#ffa799;fill-opacity:1;fill-rule:nonzero;stroke:none" />
      <path
         sodipodi:nodetypes="ccssssccssssc"
         inkscape:connector-curvature="0"
         id="path3024"
         d="m -3329.2325,1320.6753 -31.8733,-29.8824 c 0,0 -18.6937,-27.1364 -22.5864,-42.787 -3.7948,-15.2573 -3.2509,-31.766 -0.087,-47.1665 2.8441,-13.8438 8.7964,-27.2769 16.7873,-38.9339 6.0461,-8.8196 13.848,-16.7696 22.8952,-22.4695 11.7132,-7.3796 39.037,-14.1786 39.037,-14.1786 l 21.8549,-3.2221 c 0,0 -22.9391,27.1576 -31.992,42.3613 -9.0302,15.1658 -18.0421,30.9772 -21.9434,48.1913 -3.8622,17.0409 -1.9972,34.9677 -0.9678,52.4104 0.7659,12.9786 3.0822,25.8312 5.3019,38.6414 0.9905,5.7169 3.5737,17.0356 3.5737,17.0356 z"
         style="fill:#ffe5e1;fill-opacity:1;fill-rule:nonzero;stroke:none" />
      <path
         sodipodi:nodetypes="ccssccsssssc"
         inkscape:connector-curvature="0"
         id="path3794"
         d="m -3491.2764,1347.5461 -10.8978,-39.1778 c 0,0 -5.4967,-27.5257 -5.7867,-41.4848 -0.2493,-12.0038 -0.1131,-24.3967 3.4904,-35.8495 4.6,-14.62 22.5512,-40.0698 22.5512,-40.0698 l 11.7927,-11.0794 c 0,0 -36.0833,9.6918 -50.7835,20.5195 -8.9462,6.5897 -16.0982,15.8864 -21.0915,25.8124 -5.5426,11.0178 -8.5551,23.5531 -9.0495,35.8766 -0.4566,11.3799 1.2973,23.1787 5.6757,33.6926 4.6965,11.278 12.5922,21.2764 21.3636,29.7801 9.4366,9.1486 32.7354,21.9801 32.7354,21.9801 z"
         style="fill:#ffe5e1;fill-opacity:1;fill-rule:nonzero;stroke:none" />
      <path
         sodipodi:nodetypes="ccccccccccccccccccccc"
         inkscape:connector-curvature="0"
         id="path3839"
         d="m -3230.6685,1168.8743 41.3578,-25.9391 38.7345,-16.7071 36.3369,-4.2847 41.2693,-7.2661 58.8052,-15.7259 -35.4127,26.5899 -29.1681,14.2112 56.3916,-19.2985 -27.6825,23.3038 -32.7853,16.5619 56.7454,-20.0426 -39.7509,31.7668 -17.4045,9.9965 -35.9919,-5.4712 -29.4111,-8.7284 -31.0694,14.0342 -26.8484,-3.7646 -20.0096,5.6791 -7.1986,-3.9167 z"
         style="fill:#fff6f6;fill-opacity:1;fill-rule:nonzero;stroke:none" />
      <path
         transform="translate(-3696.3924,1131.6045)"
         d="m 461.78401,626.29327 c 0,21.67809 -67.70989,39.25164 -151.23427,39.25164 -83.52438,0 -151.23426,-17.57355 -151.23426,-39.25164 0,-21.67808 67.70988,-39.25164 151.23426,-39.25164 83.52438,0 151.23427,17.57356 151.23427,39.25164 z"
         sodipodi:ry="39.25164"
         sodipodi:rx="151.23427"
         sodipodi:cy="626.29327"
         sodipodi:cx="310.54974"
         id="path3885"
         style="opacity:0.75;fill:#5e5353;fill-opacity:1;fill-rule:nonzero;stroke:none"
         sodipodi:type="arc" />
    </g>
  </g>
</svg>
