<?xml version="1.0" encoding="UTF-8" standalone="no"?>
<!-- Created with Inkscape (http://www.inkscape.org/) -->

<svg
   xmlns:dc="http://purl.org/dc/elements/1.1/"
   xmlns:cc="http://creativecommons.org/ns#"
   xmlns:rdf="http://www.w3.org/1999/02/22-rdf-syntax-ns#"
   xmlns:svg="http://www.w3.org/2000/svg"
   xmlns="http://www.w3.org/2000/svg"
   xmlns:sodipodi="http://sodipodi.sourceforge.net/DTD/sodipodi-0.dtd"
   xmlns:inkscape="http://www.inkscape.org/namespaces/inkscape"
   width="1297.9695"
   height="705.1911"
   id="svg7146"
   version="1.1"
   inkscape:version="0.48.4 r9939"
   sodipodi:docname="fairy_wood.svg">
  <defs
     id="defs7148" />
  <sodipodi:namedview
     id="base"
     pagecolor="#ffffff"
     bordercolor="#666666"
     borderopacity="1.0"
     inkscape:pageopacity="0.0"
     inkscape:pageshadow="2"
     inkscape:zoom="0.49497475"
     inkscape:cx="602.95246"
     inkscape:cy="84.499316"
     inkscape:document-units="px"
     inkscape:current-layer="layer1"
     showgrid="false"
     showborder="false"
     inkscape:showpageshadow="false"
     inkscape:window-width="1280"
     inkscape:window-height="972"
     inkscape:window-x="-8"
     inkscape:window-y="-8"
     inkscape:window-maximized="1"
     fit-margin-top="0"
     fit-margin-left="0"
     fit-margin-right="0"
     fit-margin-bottom="0">
    <inkscape:grid
       type="xygrid"
       id="grid9040"
       empspacing="5"
       visible="true"
       enabled="true"
       snapvisiblegridlinesonly="true"
       originx="336.57138px"
       originy="379.80779px" />
  </sodipodi:namedview>
  <metadata
     id="metadata7151">
    <rdf:RDF>
      <cc:Work
         rdf:about="">
        <dc:format>image/svg+xml</dc:format>
        <dc:type
           rdf:resource="http://purl.org/dc/dcmitype/StillImage" />
        <dc:title />
      </cc:Work>
    </rdf:RDF>
  </metadata>
  <g
     inkscape:label="Layer 1"
     inkscape:groupmode="layer"
     id="layer1"
     transform="translate(1632.5062,-426.97871)">
    <g
       id="g4578"
       transform="matrix(1.0482697,0,0,1.0607807,78.800566,-68.814079)">
      <g
         transform="matrix(1,0,0,0.94000888,0,67.920137)"
         id="g12740">
        <rect
           style="fill:#335b27;fill-opacity:1;fill-rule:nonzero;stroke:none"
           id="rect11189-7-7"
           width="33.72168"
           height="227.68214"
           x="-566.07825"
           y="747.51477"
           ry="2.5842059"
           rx="3.1679587" />
        <rect
           style="fill:#335b27;fill-opacity:1;fill-rule:nonzero;stroke:none"
           id="rect7154-5-05"
           width="850.32648"
           height="89.87088"
           x="-1245.7444"
           y="951.44519" />
        <path
           sodipodi:type="arc"
           style="fill:#335b27;fill-opacity:1;fill-rule:nonzero;stroke:none"
           id="path11133-6-0"
           sodipodi:cx="1035.4064"
           sodipodi:cy="368.83411"
           sodipodi:rx="93.944183"
           sodipodi:ry="58.588848"
           d="m 1129.3506,368.83411 c 0,32.35772 -42.0603,58.58884 -93.9442,58.58884 -51.88397,0 -93.94421,-26.23112 -93.94421,-58.58884 0,-32.35773 42.06024,-58.58885 93.94421,-58.58885 51.8839,0 93.9442,26.23112 93.9442,58.58885 z"
           transform="matrix(0.3665621,-0.36670782,0.38046626,0.37050224,-1230.4346,1020.8744)" />
        <path
           sodipodi:type="arc"
           style="fill:#335b27;fill-opacity:1;fill-rule:nonzero;stroke:none"
           id="path11131-1-2-9"
           sodipodi:cx="875.80225"
           sodipodi:cy="108.21475"
           sodipodi:rx="112.12693"
           sodipodi:ry="105.05586"
           d="m 987.92918,108.21475 c 0,58.02075 -50.20094,105.05586 -112.12693,105.05586 -61.926,0 -112.12693,-47.03511 -112.12693,-105.05586 0,-58.020749 50.20093,-105.0558602 112.12693,-105.0558602 61.92599,0 112.12693,47.0351112 112.12693,105.0558602 z"
           transform="matrix(0.85631578,0,0,-0.64057634,-1240.4988,794.52938)" />
        <rect
           style="fill:#335b27;fill-opacity:1;fill-rule:nonzero;stroke:none"
           id="rect11189-7-1-4"
           width="33.72168"
           height="227.68214"
           x="-752.30872"
           y="751.67938"
           ry="2.5842059"
           rx="3.1679587" />
        <rect
           style="fill:#335b27;fill-opacity:1;fill-rule:nonzero;stroke:none"
           id="rect11187-8-0-2"
           width="26.977345"
           height="189.50789"
           x="-997.80261"
           y="781.6734"
           ry="2.5842059"
           rx="3.1679587" />
        <rect
           style="fill:#335b27;fill-opacity:1;fill-rule:nonzero;stroke:none"
           id="rect11185-9-4-0"
           width="28.32621"
           height="204.50493"
           x="-1248.6918"
           y="768.03973"
           ry="2.5842059"
           rx="3.1679587" />
        <rect
           style="fill:#335b27;fill-opacity:1;fill-rule:nonzero;stroke:none"
           id="rect7154-5-0-8"
           width="1046.4259"
           height="89.870964"
           x="-1631.5762"
           y="954.93213" />
        <rect
           style="fill:#505823;fill-opacity:1;fill-rule:nonzero;stroke:none"
           id="rect11189-7"
           width="33.775562"
           height="261.95093"
           x="1263.7205"
           y="746.05524"
           ry="2.9731588"
           transform="scale(-1,1)"
           rx="3.6447732" />
        <rect
           style="fill:#505823;fill-opacity:1;fill-rule:nonzero;stroke:none"
           id="rect11187-8"
           width="27.020451"
           height="218.03102"
           x="1017.8345"
           y="780.56372"
           ry="2.9731588"
           transform="scale(-1,1)"
           rx="3.6447732" />
        <rect
           style="fill:#505823;fill-opacity:1;fill-rule:nonzero;stroke:none"
           id="rect11185-9"
           width="28.371473"
           height="235.28529"
           x="766.54425"
           y="764.87799"
           ry="2.9731588"
           transform="scale(-1,1)"
           rx="3.6447732" />
        <rect
           style="fill:#356c25;fill-opacity:1;fill-rule:nonzero;stroke:none"
           id="rect7154-5"
           width="1048.9463"
           height="102.6179"
           x="582.9682"
           y="980.67957"
           transform="scale(-1,1)" />
        <rect
           style="fill:#505823;fill-opacity:1;fill-rule:nonzero;stroke:none"
           id="rect11187-8-0"
           width="27.020451"
           height="218.03102"
           x="831.30627"
           y="785.35516"
           ry="2.9731588"
           transform="scale(-1,1)"
           rx="3.6447732" />
        <path
           sodipodi:type="arc"
           style="fill:#356c25;fill-opacity:1;fill-rule:nonzero;stroke:none"
           id="path11113-3"
           sodipodi:cx="345.47217"
           sodipodi:cy="252.66656"
           sodipodi:rx="169.70563"
           sodipodi:ry="104.04572"
           d="m 515.1778,252.66656 c 0,57.46287 -75.9798,104.04573 -169.70563,104.04573 -93.72583,0 -169.70563,-46.58286 -169.70563,-104.04573 0,-57.46286 75.9798,-104.04572 169.70563,-104.04572 93.72583,0 169.70563,46.58286 169.70563,104.04572 z"
           transform="matrix(-0.66872206,0,0,0.77640177,-569.56923,541.43929)" />
        <path
           sodipodi:type="arc"
           style="fill:#356c25;fill-opacity:1;fill-rule:nonzero;stroke:none"
           id="path11115-0"
           sodipodi:cx="445.47726"
           sodipodi:cy="115.28582"
           sodipodi:rx="128.28937"
           sodipodi:ry="91.923882"
           d="m 573.76663,115.28582 c 0,50.76816 -57.4371,91.92388 -128.28937,91.92388 -70.85226,0 -128.28936,-41.15572 -128.28936,-91.92388 0,-50.768158 57.4371,-91.923882 128.28936,-91.923882 70.85227,0 128.28937,41.155724 128.28937,91.923882 z"
           transform="matrix(-0.66872206,0,0,0.77640177,-583.18751,526.96389)" />
        <path
           sodipodi:type="arc"
           style="fill:#356c25;fill-opacity:1;fill-rule:nonzero;stroke:none"
           id="path11123-08"
           sodipodi:cx="725.28955"
           sodipodi:cy="314.28586"
           sodipodi:rx="86.873116"
           sodipodi:ry="86.873116"
           d="m 812.16267,314.28586 c 0,47.9787 -38.89442,86.87311 -86.87312,86.87311 -47.9787,0 -86.87311,-38.89441 -86.87311,-86.87311 0,-47.9787 38.89441,-86.87312 86.87311,-86.87312 47.9787,0 86.87312,38.89442 86.87312,86.87312 z"
           transform="matrix(-0.52275735,0,0,0.60693335,-856.56981,574.4801)" />
        <path
           sodipodi:type="arc"
           style="fill:#356c25;fill-opacity:1;fill-rule:nonzero;stroke:none"
           id="path11125-8"
           sodipodi:cx="874.79211"
           sodipodi:cy="260.7478"
           sodipodi:rx="127.27922"
           sodipodi:ry="97.984795"
           d="m 1002.0713,260.7478 c 0,54.11551 -56.98481,97.9848 -127.27919,97.9848 -70.29437,0 -127.27922,-43.86929 -127.27922,-97.9848 0,-54.11551 56.98485,-97.98479 127.27922,-97.98479 70.29438,0 127.27919,43.86928 127.27919,97.98479 z"
           transform="matrix(-0.52275735,0,0,0.60693335,-575.82365,572.4122)" />
        <path
           sodipodi:type="arc"
           style="fill:#356c25;fill-opacity:1;fill-rule:nonzero;stroke:none"
           id="path11125-4-0"
           sodipodi:cx="874.79211"
           sodipodi:cy="260.7478"
           sodipodi:rx="127.27922"
           sodipodi:ry="97.984795"
           d="m 1002.0713,260.7478 c 0,54.11551 -56.98481,97.9848 -127.27919,97.9848 -70.29437,0 -127.27922,-43.86929 -127.27922,-97.9848 0,-54.11551 56.98485,-97.98479 127.27922,-97.98479 70.29438,0 127.27919,43.86928 127.27919,97.98479 z"
           transform="matrix(-0.63477679,0,0,-0.73699051,-807.65117,769.12736)" />
        <rect
           style="fill:#505823;fill-opacity:1;fill-rule:nonzero;stroke:none"
           id="rect11189-7-1-3"
           width="33.775562"
           height="261.95093"
           x="1386.3912"
           y="718.61365"
           ry="2.9731588"
           transform="scale(-1,1)"
           rx="3.6447732" />
        <path
           sodipodi:type="arc"
           style="fill:#335b27;fill-opacity:1;fill-rule:nonzero;stroke:none"
           id="path11125-8-7-4-6"
           sodipodi:cx="874.79211"
           sodipodi:cy="260.7478"
           sodipodi:rx="127.27922"
           sodipodi:ry="97.984795"
           d="m 1002.0713,260.7478 c 0,54.11551 -56.98481,97.9848 -127.27919,97.9848 -70.29437,0 -127.27922,-43.86929 -127.27922,-97.9848 0,-54.11551 56.98485,-97.98479 127.27922,-97.98479 70.29438,0 127.27919,43.86928 127.27919,97.98479 z"
           transform="matrix(-0.52192335,0,0,0.52753345,-953.87266,618.72078)" />
        <path
           sodipodi:type="arc"
           style="fill:#356c25;fill-opacity:1;fill-rule:nonzero;stroke:none"
           id="path11131-1-2"
           sodipodi:cx="875.80225"
           sodipodi:cy="108.21475"
           sodipodi:rx="112.12693"
           sodipodi:ry="105.05586"
           d="m 987.92918,108.21475 c 0,58.02075 -50.20094,105.05586 -112.12693,105.05586 -61.926,0 -112.12693,-47.03511 -112.12693,-105.05586 0,-58.020749 50.20093,-105.0558602 112.12693,-105.0558602 61.92599,0 112.12693,47.0351112 112.12693,105.0558602 z"
           transform="matrix(-0.85768415,0,0,-0.73699051,-566.18826,800.14609)" />
        <rect
           style="fill:#505823;fill-opacity:1;fill-rule:nonzero;stroke:none"
           id="rect11189-7-1"
           width="33.775562"
           height="261.95093"
           x="1077.1924"
           y="750.84662"
           ry="2.9731588"
           transform="scale(-1,1)"
           rx="3.6447732" />
        <rect
           style="fill:#356c25;fill-opacity:1;fill-rule:nonzero;stroke:none"
           id="rect7154-5-0"
           width="848.17773"
           height="102.6179"
           x="396.44009"
           y="985.47095"
           transform="scale(-1,1)" />
        <path
           sodipodi:type="arc"
           style="fill:#356c25;fill-opacity:1;fill-rule:nonzero;stroke:none"
           id="path11109-6-0"
           sodipodi:cx="142.4315"
           sodipodi:cy="144.58025"
           sodipodi:rx="85.862968"
           sodipodi:ry="64.649765"
           d="m 228.29447,144.58025 c 0,35.70508 -38.44216,64.64976 -85.86297,64.64976 -47.420805,0 -85.862965,-28.94468 -85.862965,-64.64976 0,-35.70508 38.44216,-64.649769 85.862965,-64.649769 47.42081,0 85.86297,28.944689 85.86297,64.649769 z"
           transform="matrix(-0.66872206,0,0,0.77640177,-374.66061,516.24592)" />
        <path
           sodipodi:type="arc"
           style="fill:#356c25;fill-opacity:1;fill-rule:nonzero;stroke:none"
           id="path11113-3-1"
           sodipodi:cx="345.47217"
           sodipodi:cy="252.66656"
           sodipodi:rx="169.70563"
           sodipodi:ry="104.04572"
           d="m 515.1778,252.66656 c 0,57.46287 -75.9798,104.04573 -169.70563,104.04573 -93.72583,0 -169.70563,-46.58286 -169.70563,-104.04573 0,-57.46286 75.9798,-104.04572 169.70563,-104.04572 93.72583,0 169.70563,46.58286 169.70563,104.04572 z"
           transform="matrix(-0.66872206,0,0,0.77640177,-389.32646,488.32907)" />
        <path
           sodipodi:type="arc"
           style="fill:#356c25;fill-opacity:1;fill-rule:nonzero;stroke:none"
           id="path11123-08-0"
           sodipodi:cx="725.28955"
           sodipodi:cy="314.28586"
           sodipodi:rx="86.873116"
           sodipodi:ry="86.873116"
           d="m 812.16267,314.28586 c 0,47.9787 -38.89442,86.87311 -86.87312,86.87311 -47.9787,0 -86.87311,-38.89441 -86.87311,-86.87311 0,-47.9787 38.89441,-86.87312 86.87311,-86.87312 47.9787,0 86.87312,38.89442 86.87312,86.87312 z"
           transform="matrix(-0.52275735,0,0,0.60693335,-411.29427,421.07601)" />
        <path
           sodipodi:type="arc"
           style="fill:#356c25;fill-opacity:1;fill-rule:nonzero;stroke:none"
           id="path11133-6-8"
           sodipodi:cx="1035.4064"
           sodipodi:cy="368.83411"
           sodipodi:rx="93.944183"
           sodipodi:ry="58.588848"
           d="m 1129.3506,368.83411 c 0,32.35772 -42.0603,58.58884 -93.9442,58.58884 -51.88397,0 -93.94421,-26.23112 -93.94421,-58.58884 0,-32.35773 42.06024,-58.58885 93.94421,-58.58885 51.8839,0 93.9442,26.23112 93.9442,58.58885 z"
           transform="matrix(-0.52275735,0,0,0.60693335,-339.85451,589.90225)" />
        <path
           sodipodi:type="arc"
           style="fill:#356c25;fill-opacity:1;fill-rule:nonzero;stroke:none"
           id="path11123-0-5-2"
           sodipodi:cx="725.28955"
           sodipodi:cy="314.28586"
           sodipodi:rx="86.873116"
           sodipodi:ry="86.873116"
           d="m 812.16267,314.28586 c 0,47.9787 -38.89442,86.87311 -86.87312,86.87311 -47.9787,0 -86.87311,-38.89441 -86.87311,-86.87311 0,-47.9787 38.89441,-86.87312 86.87311,-86.87312 47.9787,0 86.87312,38.89442 86.87312,86.87312 z"
           transform="matrix(-0.63477679,0,0,-0.73699051,-567.69746,834.92225)" />
        <path
           sodipodi:type="arc"
           style="fill:#356c25;fill-opacity:1;fill-rule:nonzero;stroke:none"
           id="path11131-1-2-0"
           sodipodi:cx="875.80225"
           sodipodi:cy="108.21475"
           sodipodi:rx="112.12693"
           sodipodi:ry="105.05586"
           d="m 987.92918,108.21475 c 0,58.02075 -50.20094,105.05586 -112.12693,105.05586 -61.926,0 -112.12693,-47.03511 -112.12693,-105.05586 0,-58.020749 50.20093,-105.0558602 112.12693,-105.0558602 61.92599,0 112.12693,47.0351112 112.12693,105.0558602 z"
           transform="matrix(-0.85768415,0,0,-0.73699051,-402.70643,829.75246)" />
        <rect
           style="fill:#7e4c21;fill-opacity:1;fill-rule:nonzero;stroke:none"
           id="rect11189"
           width="41.268818"
           height="320.06589"
           x="-599.32819"
           y="720.10895"
           ry="3.6327672"
           rx="4.4533815" />
        <rect
           style="fill:#7e4c21;fill-opacity:1;fill-rule:nonzero;stroke:none"
           id="rect11187"
           width="33.015057"
           height="266.40216"
           x="-899.76514"
           y="762.27332"
           ry="3.6327672"
           rx="4.4533815" />
        <rect
           style="fill:#7e4c21;fill-opacity:1;fill-rule:nonzero;stroke:none"
           id="rect11185"
           width="34.66581"
           height="287.48434"
           x="-1206.8052"
           y="743.10767"
           ry="3.6327672"
           rx="4.4533815" />
        <rect
           style="fill:#409527;fill-opacity:1;fill-rule:nonzero;stroke:none"
           id="rect7154"
           width="1237.118"
           height="125.38413"
           x="-1631.8766"
           y="1006.7857" />
        <path
           sodipodi:type="arc"
           style="fill:#356c25;fill-opacity:1;fill-rule:nonzero;stroke:none"
           id="path11131-0-3-6"
           sodipodi:cx="875.80225"
           sodipodi:cy="108.21475"
           sodipodi:rx="112.12693"
           sodipodi:ry="105.05586"
           d="m 987.92918,108.21475 c 0,58.02075 -50.20094,105.05586 -112.12693,105.05586 -61.926,0 -112.12693,-47.03511 -112.12693,-105.05586 0,-58.020749 50.20093,-105.0558602 112.12693,-105.0558602 61.92599,0 112.12693,47.0351112 112.12693,105.0558602 z"
           transform="matrix(0.52275735,0,0,0.60693335,-1910.8628,478.73488)" />
        <path
           sodipodi:type="arc"
           style="fill:#409527;fill-opacity:1;fill-rule:nonzero;stroke:none"
           id="path11109"
           sodipodi:cx="142.4315"
           sodipodi:cy="144.58025"
           sodipodi:rx="85.862968"
           sodipodi:ry="64.649765"
           d="m 228.29447,144.58025 c 0,35.70508 -38.44216,64.64976 -85.86297,64.64976 -47.420805,0 -85.862965,-28.94468 -85.862965,-64.64976 0,-35.70508 38.44216,-64.649769 85.862965,-64.649769 47.42081,0 85.86297,28.944689 85.86297,64.649769 z"
           transform="matrix(0.81708094,0,0,0.94864985,-1405.3415,504.80414)" />
        <path
           sodipodi:type="arc"
           style="fill:#409527;fill-opacity:1;fill-rule:nonzero;stroke:none"
           id="path11111"
           sodipodi:cx="241.42645"
           sodipodi:cy="98.113228"
           sodipodi:rx="120.20815"
           sodipodi:ry="82.832512"
           d="m 361.63461,98.113228 c 0,45.747132 -53.81903,82.832512 -120.20816,82.832512 -66.38913,0 -120.20815,-37.08538 -120.20815,-82.832512 0,-45.747133 53.81902,-82.832512 120.20815,-82.832512 66.38913,0 120.20816,37.085379 120.20816,82.832512 z"
           transform="matrix(0.81708094,0,0,0.94864985,-1257.6356,504.80414)" />
        <path
           sodipodi:type="arc"
           style="fill:#409527;fill-opacity:1;fill-rule:nonzero;stroke:none"
           id="path11113"
           sodipodi:cx="345.47217"
           sodipodi:cy="252.66656"
           sodipodi:rx="169.70563"
           sodipodi:ry="104.04572"
           d="m 515.1778,252.66656 c 0,57.46287 -75.9798,104.04573 -169.70563,104.04573 -93.72583,0 -169.70563,-46.58286 -169.70563,-104.04573 0,-57.46286 75.9798,-104.04572 169.70563,-104.04572 93.72583,0 169.70563,46.58286 169.70563,104.04572 z"
           transform="matrix(0.81708094,0,0,0.94864985,-1506.9549,303.18243)" />
        <path
           sodipodi:type="arc"
           style="fill:#409527;fill-opacity:1;fill-rule:nonzero;stroke:none"
           id="path11115"
           sodipodi:cx="445.47726"
           sodipodi:cy="115.28582"
           sodipodi:rx="128.28937"
           sodipodi:ry="91.923882"
           d="m 573.76663,115.28582 c 0,50.76816 -57.4371,91.92388 -128.28937,91.92388 -70.85226,0 -128.28936,-41.15572 -128.28936,-91.92388 0,-50.768158 57.4371,-91.923882 128.28936,-91.923882 70.85227,0 128.28937,41.155724 128.28937,91.923882 z"
           transform="matrix(0.81708094,0,0,0.94864985,-1521.6207,574.07929)" />
        <path
           sodipodi:type="arc"
           style="fill:#409527;fill-opacity:1;fill-rule:nonzero;stroke:none"
           id="path11123"
           sodipodi:cx="725.28955"
           sodipodi:cy="314.28586"
           sodipodi:rx="86.873116"
           sodipodi:ry="86.873116"
           d="m 812.16267,314.28586 c 0,47.9787 -38.89442,86.87311 -86.87312,86.87311 -47.9787,0 -86.87311,-38.89441 -86.87311,-86.87311 0,-47.9787 38.89441,-86.87312 86.87311,-86.87312 47.9787,0 86.87312,38.89442 86.87312,86.87312 z"
           transform="matrix(0.63873332,0,0,0.74158414,-1360.5771,528.15255)" />
        <path
           sodipodi:type="arc"
           style="fill:#409527;fill-opacity:1;fill-rule:nonzero;stroke:none"
           id="path11125"
           sodipodi:cx="874.79211"
           sodipodi:cy="260.7478"
           sodipodi:rx="127.27922"
           sodipodi:ry="97.984795"
           d="m 1002.0713,260.7478 c 0,54.11551 -56.98481,97.9848 -127.27919,97.9848 -70.29437,0 -127.27922,-43.86929 -127.27922,-97.9848 0,-54.11551 56.98485,-97.98479 127.27922,-97.98479 70.29438,0 127.27919,43.86928 127.27919,97.98479 z"
           transform="matrix(0.63873332,0,0,0.74158414,-1523.9966,567.44294)" />
        <path
           sodipodi:type="arc"
           style="fill:#409527;fill-opacity:1;fill-rule:nonzero;stroke:none"
           id="path11129"
           sodipodi:cx="724.27936"
           sodipodi:cy="132.45842"
           sodipodi:rx="112.12693"
           sodipodi:ry="56.568542"
           d="m 836.40629,132.45842 c 0,31.24194 -50.20094,56.56854 -112.12693,56.56854 -61.926,0 -112.12693,-25.3266 -112.12693,-56.56854 0,-31.24194 50.20093,-56.568543 112.12693,-56.568543 61.92599,0 112.12693,25.326603 112.12693,56.568543 z"
           transform="matrix(0.63873332,0,0,0.74158414,-1432.8588,565.37503)" />
        <path
           sodipodi:type="arc"
           style="fill:#409527;fill-opacity:1;fill-rule:nonzero;stroke:none"
           id="path11131"
           sodipodi:cx="875.80225"
           sodipodi:cy="108.21475"
           sodipodi:rx="112.12693"
           sodipodi:ry="105.05586"
           d="m 987.92918,108.21475 c 0,58.02075 -50.20094,105.05586 -112.12693,105.05586 -61.926,0 -112.12693,-47.03511 -112.12693,-105.05586 0,-58.020749 50.20093,-105.0558602 112.12693,-105.0558602 61.92599,0 112.12693,47.0351112 112.12693,105.0558602 z"
           transform="matrix(0.63873332,0,0,0.74158414,-1442.2868,569.51085)" />
        <path
           sodipodi:type="arc"
           style="fill:#409527;fill-opacity:1;fill-rule:nonzero;stroke:none"
           id="path11133"
           sodipodi:cx="1035.4064"
           sodipodi:cy="368.83411"
           sodipodi:rx="93.944183"
           sodipodi:ry="58.588848"
           d="m 1129.3506,368.83411 c 0,32.35772 -42.0603,58.58884 -93.9442,58.58884 -51.88397,0 -93.94421,-26.23112 -93.94421,-58.58884 0,-32.35773 42.06024,-58.58885 93.94421,-58.58885 51.8839,0 93.9442,26.23112 93.9442,58.58885 z"
           transform="matrix(0.63873332,0,0,0.74158414,-1481.6377,452.6939)" />
        <path
           sodipodi:type="arc"
           style="fill:#409527;fill-opacity:1;fill-rule:nonzero;stroke:none"
           id="path11123-0"
           sodipodi:cx="725.28955"
           sodipodi:cy="314.28586"
           sodipodi:rx="86.873116"
           sodipodi:ry="86.873116"
           d="m 812.16267,314.28586 c 0,47.9787 -38.89442,86.87311 -86.87312,86.87311 -47.9787,0 -86.87311,-38.89441 -86.87311,-86.87311 0,-47.9787 38.89441,-86.87312 86.87311,-86.87312 47.9787,0 86.87312,38.89442 86.87312,86.87312 z"
           transform="matrix(0.77560475,0,0,-0.90049507,-1243.6161,786.20008)" />
        <path
           sodipodi:type="arc"
           style="fill:#409527;fill-opacity:1;fill-rule:nonzero;stroke:none"
           id="path11125-4"
           sodipodi:cx="874.79211"
           sodipodi:cy="260.7478"
           sodipodi:rx="127.27922"
           sodipodi:ry="97.984795"
           d="m 1002.0713,260.7478 c 0,54.11551 -56.98481,97.9848 -127.27919,97.9848 -70.29437,0 -127.27922,-43.86929 -127.27922,-97.9848 0,-54.11551 56.98485,-97.98479 127.27922,-97.98479 70.29438,0 127.27919,43.86928 127.27919,97.98479 z"
           transform="matrix(0.77560475,0,0,-0.90049507,-1269.8051,769.65677)" />
        <path
           sodipodi:type="arc"
           style="fill:#409527;fill-opacity:1;fill-rule:nonzero;stroke:none"
           id="path11129-8"
           sodipodi:cx="724.27936"
           sodipodi:cy="132.45842"
           sodipodi:rx="112.12693"
           sodipodi:ry="56.568542"
           d="m 836.40629,132.45842 c 0,31.24194 -50.20094,56.56854 -112.12693,56.56854 -61.926,0 -112.12693,-25.3266 -112.12693,-56.56854 0,-31.24194 50.20093,-56.568543 112.12693,-56.568543 61.92599,0 112.12693,25.326603 112.12693,56.568543 z"
           transform="matrix(0.77560475,0,0,-1.37482,-1268.7576,820.12863)" />
        <path
           sodipodi:type="arc"
           style="fill:#409527;fill-opacity:1;fill-rule:nonzero;stroke:none"
           id="path11131-1"
           sodipodi:cx="875.80225"
           sodipodi:cy="108.21475"
           sodipodi:rx="112.12693"
           sodipodi:ry="105.05586"
           d="m 987.92918,108.21475 c 0,58.02075 -50.20094,105.05586 -112.12693,105.05586 -61.926,0 -112.12693,-47.03511 -112.12693,-105.05586 0,-58.020749 50.20093,-105.0558602 112.12693,-105.0558602 61.92599,0 112.12693,47.0351112 112.12693,105.0558602 z"
           transform="matrix(1.047965,0,0,-0.90049507,-1487.228,790.3359)" />
        <path
           sodipodi:type="arc"
           style="fill:#409527;fill-opacity:1;fill-rule:nonzero;stroke:none"
           id="path11133-3"
           sodipodi:cx="1035.4064"
           sodipodi:cy="368.83411"
           sodipodi:rx="93.944183"
           sodipodi:ry="58.588848"
           d="m 1129.3506,368.83411 c 0,32.35772 -42.0603,58.58884 -93.9442,58.58884 -51.88397,0 -93.94421,-26.23112 -93.94421,-58.58884 0,-32.35773 42.06024,-58.58885 93.94421,-58.58885 51.8839,0 93.9442,26.23112 93.9442,58.58885 z"
           transform="matrix(0.77560475,0,0,-1.407532,-1275.9853,1075.4933)" />
        <path
           sodipodi:type="arc"
           style="fill:#356c25;fill-opacity:1;fill-rule:nonzero;stroke:none"
           id="path11123-0-5-2-8"
           sodipodi:cx="725.28955"
           sodipodi:cy="314.28586"
           sodipodi:rx="86.873116"
           sodipodi:ry="86.873116"
           d="m 812.16267,314.28586 c 0,47.9787 -38.89442,86.87311 -86.87312,86.87311 -47.9787,0 -86.87311,-38.89441 -86.87311,-86.87311 0,-47.9787 38.89441,-86.87312 86.87311,-86.87312 47.9787,0 86.87312,38.89442 86.87312,86.87312 z"
           transform="matrix(0.63477679,0,0,-0.73699051,-1939.0961,1005.5125)" />
        <path
           sodipodi:type="arc"
           style="fill:#356c25;fill-opacity:1;fill-rule:nonzero;stroke:none"
           id="path11125-8-7-1"
           sodipodi:cx="874.79211"
           sodipodi:cy="260.7478"
           sodipodi:rx="127.27922"
           sodipodi:ry="97.984795"
           d="m 1002.0713,260.7478 c 0,54.11551 -56.98481,97.9848 -127.27919,97.9848 -70.29437,0 -127.27922,-43.86929 -127.27922,-97.9848 0,-54.11551 56.98485,-97.98479 127.27922,-97.98479 70.29438,0 127.27919,43.86928 127.27919,97.98479 z"
           transform="matrix(0.52275735,0,0,0.60693335,-2008.3062,438.67872)" />
        <path
           sodipodi:type="arc"
           style="fill:#409527;fill-opacity:1;fill-rule:nonzero;stroke:none"
           id="path11125-7"
           sodipodi:cx="874.79211"
           sodipodi:cy="260.7478"
           sodipodi:rx="127.27922"
           sodipodi:ry="97.984795"
           d="m 1002.0713,260.7478 c 0,54.11551 -56.98481,97.9848 -127.27919,97.9848 -70.29437,0 -127.27922,-43.86929 -127.27922,-97.9848 0,-54.11551 56.98485,-97.98479 127.27922,-97.98479 70.29438,0 127.27919,43.86928 127.27919,97.98479 z"
           transform="matrix(-0.63873332,0,0,0.74158414,-987.01851,495.58816)" />
        <rect
           style="fill:#7e4c21;fill-opacity:1;fill-rule:nonzero;stroke:none"
           id="rect11187-1"
           width="33.015057"
           height="266.40216"
           x="-1499.1603"
           y="740.58221"
           ry="3.6327672"
           rx="4.4533815" />
        <path
           sodipodi:type="arc"
           style="fill:#409527;fill-opacity:1;fill-rule:nonzero;stroke:none"
           id="path11127-0"
           sodipodi:cx="767.71594"
           sodipodi:cy="181.95589"
           sodipodi:rx="64.649765"
           sodipodi:ry="69.700523"
           d="m 832.36571,181.95589 c 0,38.49453 -28.94469,69.70052 -64.64977,69.70052 -35.70508,0 -64.64976,-31.20599 -64.64976,-69.70052 0,-38.49454 28.94468,-69.70053 64.64976,-69.70053 35.70508,0 64.64977,31.20599 64.64977,69.70053 z"
           transform="matrix(-0.63873332,0,0,0.74158414,-1000.3076,612.21777)" />
        <path
           sodipodi:type="arc"
           style="fill:#409527;fill-opacity:1;fill-rule:nonzero;stroke:none"
           id="path11129-7"
           sodipodi:cx="724.27936"
           sodipodi:cy="132.45842"
           sodipodi:rx="112.12693"
           sodipodi:ry="56.568542"
           d="m 836.40629,132.45842 c 0,31.24194 -50.20094,56.56854 -112.12693,56.56854 -61.926,0 -112.12693,-25.3266 -112.12693,-56.56854 0,-31.24194 50.20093,-56.568543 112.12693,-56.568543 61.92599,0 112.12693,25.326603 112.12693,56.568543 z"
           transform="matrix(-0.40477684,0.48768515,0.58121001,0.46995527,-1287.119,171.64271)" />
        <path
           sodipodi:type="arc"
           style="fill:#409527;fill-opacity:1;fill-rule:nonzero;stroke:none"
           id="path11131-9"
           sodipodi:cx="875.80225"
           sodipodi:cy="108.21475"
           sodipodi:rx="112.12693"
           sodipodi:ry="105.05586"
           d="m 987.92918,108.21475 c 0,58.02075 -50.20094,105.05586 -112.12693,105.05586 -61.926,0 -112.12693,-47.03511 -112.12693,-105.05586 0,-58.020749 50.20093,-105.0558602 112.12693,-105.0558602 61.92599,0 112.12693,47.0351112 112.12693,105.0558602 z"
           transform="matrix(-0.63873332,0,0,0.74158414,-869.35004,576.67946)" />
      </g>
      <rect
         ry="2.7467122"
         y="1057.4186"
         x="-1632.5062"
         height="74.506187"
         width="1238.2019"
         id="rect4576"
         style="opacity:0.5;fill:#d0aa7f;fill-opacity:1;fill-rule:nonzero;stroke:none"
         rx="3.3671737" />
    </g>
  </g>
</svg>
