<?xml version="1.0" encoding="UTF-8" standalone="no"?>
<!-- Created with Inkscape (http://www.inkscape.org/) -->

<svg
   xmlns:dc="http://purl.org/dc/elements/1.1/"
   xmlns:cc="http://creativecommons.org/ns#"
   xmlns:rdf="http://www.w3.org/1999/02/22-rdf-syntax-ns#"
   xmlns:svg="http://www.w3.org/2000/svg"
   xmlns="http://www.w3.org/2000/svg"
   xmlns:sodipodi="http://sodipodi.sourceforge.net/DTD/sodipodi-0.dtd"
   xmlns:inkscape="http://www.inkscape.org/namespaces/inkscape"
   width="1310"
   height="700"
   id="svg2"
   version="1.1"
   inkscape:version="0.48.4 r9939"
   sodipodi:docname="ship.svg">
  <defs
     id="defs4">
    <inkscape:perspective
       sodipodi:type="inkscape:persp3d"
       inkscape:vp_x="-316.50308 : 125.22847 : 1"
       inkscape:vp_y="75.822949 : 773.58029 : 0"
       inkscape:vp_z="796.5588 : 267.62168 : 1"
       inkscape:persp3d-origin="485.96924 : 151.77033 : 1"
       id="perspective12926" />
  </defs>
  <sodipodi:namedview
     id="base"
     pagecolor="#ffffff"
     bordercolor="#666666"
     borderopacity="1.0"
     inkscape:pageopacity="0.0"
     inkscape:pageshadow="2"
     inkscape:zoom="0.5"
     inkscape:cx="852.49631"
     inkscape:cy="170.08328"
     inkscape:document-units="px"
     inkscape:current-layer="layer2"
     showgrid="false"
     showborder="false"
     inkscape:showpageshadow="false"
     inkscape:window-width="1280"
     inkscape:window-height="972"
     inkscape:window-x="-8"
     inkscape:window-y="-8"
     inkscape:window-maximized="1"
     fit-margin-top="0"
     fit-margin-left="0"
     fit-margin-right="0"
     fit-margin-bottom="0"
     showguides="true"
     inkscape:guide-bbox="true">
    <inkscape:grid
       type="xygrid"
       id="grid5418"
       empspacing="5"
       visible="true"
       enabled="true"
       snapvisiblegridlinesonly="true"
       originx="79.999996px"
       originy="39.999997px" />
  </sodipodi:namedview>
  <metadata
     id="metadata7">
    <rdf:RDF>
      <cc:Work
         rdf:about="">
        <dc:format>image/svg+xml</dc:format>
        <dc:type
           rdf:resource="http://purl.org/dc/dcmitype/StillImage" />
        <dc:title />
      </cc:Work>
    </rdf:RDF>
  </metadata>
  <g
     inkscape:groupmode="layer"
     id="layer2"
     inkscape:label="1"
     style="display:inline"
     transform="translate(1124.0648,-28.435111)">
    <g
       id="g3579"
       transform="matrix(0.96323529,0,0,1,-41.325912,0)">
      <path
         sodipodi:nodetypes="cccc"
         inkscape:connector-curvature="0"
         id="path12900"
         d="m -277.06939,155.20242 128.89784,6.39163 -14.9138,141.68109 z"
         style="fill:#6e898f;fill-opacity:1;fill-rule:nonzero;stroke:none" />
      <path
         inkscape:connector-curvature="0"
         id="path12390"
         d="m -790.53021,156.26769 12.78326,243.94715 154.46435,-239.68606 z"
         style="fill:#6e898f;fill-opacity:1;fill-rule:nonzero;stroke:none" />
      <path
         sodipodi:nodetypes="ccccc"
         inkscape:connector-curvature="0"
         id="path3033"
         d="m -837.92783,528.43302 784.608752,4.90333 289.254278,195.09876 -1360,0 z"
         style="fill:#6f8a91;fill-opacity:1;fill-rule:nonzero;stroke:none" />
      <path
         sodipodi:nodetypes="ccccc"
         inkscape:connector-curvature="0"
         id="path3025"
         d="m -752.48085,181.21651 2.39407,375.10391 -373.97802,172.11469 0,-699.999999 z"
         style="fill:#b7c4c8;fill-opacity:1;fill-rule:nonzero;stroke:none" />
      <path
         sodipodi:nodetypes="ccccc"
         inkscape:connector-curvature="0"
         id="path3023"
         d="m -171.05069,118.93468 9.41165,380.27062 397.57424,229.22981 0,-699.999999 z"
         style="fill:#b7c4c8;fill-opacity:1;fill-rule:nonzero;stroke:none" />
      <path
         sodipodi:nodetypes="cccccccccccccccccc"
         inkscape:connector-curvature="0"
         id="path3007"
         d="m -638.01465,174.14765 -68.85066,64.55626 -67.82295,117.51125 -11.24327,59.56081 665.59683,-0.0582 -9.20782,-69.90425 -60.22904,-108.638 -60.80817,-64.72052 -211.42559,5.21721 0.0238,25.01675 216.05196,-1.44001 54.46191,170.74962 -263.70787,5.15969 -266.23309,-2.45166 71.63696,-166.19186 188.90315,-5.83135 -0.63223,-25.39567 z"
         style="fill:#53676c;fill-opacity:1;fill-rule:nonzero;stroke:none" />
      <path
         sodipodi:nodetypes="ccccc"
         inkscape:connector-curvature="0"
         id="path3021"
         d="M -1124.0648,28.435111 -753.45008,181.68376 -169.30689,173.02351 235.9352,28.435111 z"
         style="fill:#dbe2e3;fill-opacity:1;fill-rule:nonzero;stroke:none" />
      <path
         sodipodi:nodetypes="ccccc"
         inkscape:connector-curvature="0"
         id="path3009"
         d="m -783.81374,412.36689 -41.83755,58.84274 745.913567,-8.09007 -42.632457,-55.43365 z"
         style="fill:#6f8a91;fill-opacity:1;fill-rule:nonzero;stroke:none" />
      <path
         inkscape:connector-curvature="0"
         id="path4480"
         d="m -464.37872,415.08463 72.80972,-1.71616 -23.5055,42.33199 -72.80972,1.14411 z"
         style="fill:#a4b5b9;fill-opacity:1;fill-rule:nonzero;stroke:none" />
      <path
         sodipodi:nodetypes="ccccc"
         inkscape:connector-curvature="0"
         id="path3011"
         d="m -825.79182,469.0554 2.2342,134.48455 750.769397,-4.62289 -4.773523,-137.47301 z"
         style="fill:#53676c;fill-opacity:1;fill-rule:nonzero;stroke:none" />
      <path
         inkscape:connector-curvature="0"
         id="path3013"
         d="m -936.20867,217.88948 1.63801,169.16452 121.21304,-42.49544 10.6471,-111.95912 z"
         style="fill:#d7eef4;fill-opacity:1;fill-rule:nonzero;stroke:none" />
      <path
         inkscape:connector-curvature="0"
         id="path3017"
         d="m -113.92561,213.80339 14.742135,64.56037 79.443683,8.1722 -13.923124,-110.32468 z"
         style="fill:#d7eef4;fill-opacity:1;fill-rule:nonzero;stroke:none" />
      <path
         sodipodi:nodetypes="ccccc"
         inkscape:connector-curvature="0"
         id="path3019"
         d="m -840.38486,635.48883 -143.67994,72.94628 c 624.91893,-1.90685 792.32635,1.90685 1100,0 l -120,-80 z"
         style="fill:#006680;fill-opacity:1;fill-rule:nonzero;stroke:none" />
      <path
         sodipodi:nodetypes="cccccc"
         inkscape:connector-curvature="0"
         id="path3027"
         d="m -674.94543,494.92702 -0.819,108.69023 232.59799,-3.26888 -3.27602,-105.42135 -232.59801,-0.81722 z"
         style="fill:#374548;fill-opacity:1;fill-rule:nonzero;stroke:none" />
      <path
         sodipodi:nodetypes="ccccc"
         inkscape:connector-curvature="0"
         id="path3029"
         d="m -647.9182,567.65958 176.90551,0.81722 22.93222,32.68879 -224.40794,4.0861 z"
         style="fill:#6f8a91;fill-opacity:1;fill-rule:nonzero;stroke:none" />
      <path
         transform="matrix(1.1466099,0,0,1.1441078,153.0707,-56.130085)"
         d="m -899.99998,297.36218 a 21.071428,2.1428571 0 1 1 -42.14286,0 21.071428,2.1428571 0 1 1 42.14286,0 z"
         sodipodi:ry="2.1428571"
         sodipodi:rx="21.071428"
         sodipodi:cy="297.36218"
         sodipodi:cx="-921.07141"
         id="path3039"
         style="fill:#decd87;fill-opacity:1;fill-rule:nonzero;stroke:none"
         sodipodi:type="arc" />
      <path
         transform="matrix(0.81692098,-0.76043306,0.53589633,0.57319494,-310.26682,-556.7501)"
         d="m -853.57142,304.50504 a 38.214287,37.142857 0 1 1 -76.42857,0 38.214287,37.142857 0 1 1 76.42857,0 z"
         sodipodi:ry="37.142857"
         sodipodi:rx="38.214287"
         sodipodi:cy="304.50504"
         sodipodi:cx="-891.78571"
         id="path3045"
         style="fill:none;stroke:#000000;stroke-width:1;stroke-miterlimit:4;stroke-opacity:1;stroke-dasharray:8, 8;stroke-dashoffset:0"
         sodipodi:type="arc" />
      <path
         transform="matrix(1.1466099,0,0,1.1441078,153.0707,-56.130085)"
         d="m -909.28574,295.57648 a 12.857142,13.928572 0 1 1 -25.71429,0 12.857142,13.928572 0 1 1 25.71429,0 z"
         sodipodi:ry="13.928572"
         sodipodi:rx="12.857142"
         sodipodi:cy="295.57648"
         sodipodi:cx="-922.14288"
         id="path3035"
         style="fill:#87decd;fill-opacity:1;fill-rule:nonzero;stroke:none"
         sodipodi:type="arc" />
      <path
         transform="matrix(1.1466099,0,0,1.1441078,153.0707,-56.130085)"
         d="m -865.71429,324.86218 a 9.2857141,16.785715 0 1 1 -18.57142,0 9.2857141,16.785715 0 1 1 18.57142,0 z"
         sodipodi:ry="16.785715"
         sodipodi:rx="9.2857141"
         sodipodi:cy="324.86218"
         sodipodi:cx="-875"
         id="path3037"
         style="fill:#decd87;fill-opacity:1;fill-rule:nonzero;stroke:none"
         sodipodi:type="arc" />
      <path
         transform="matrix(1.1466099,0,0,1.1441078,153.0707,-56.130085)"
         d="m -867.85717,271.64789 a 6.7857141,7.1428571 0 1 1 -13.57143,0 6.7857141,7.1428571 0 1 1 13.57143,0 z"
         sodipodi:ry="7.1428571"
         sodipodi:rx="6.7857141"
         sodipodi:cy="271.64789"
         sodipodi:cx="-874.64288"
         id="path3041"
         style="fill:#aa8800;fill-opacity:1;fill-rule:nonzero;stroke:none"
         sodipodi:type="arc" />
      <path
         transform="matrix(1.1466099,0,0,1.1441078,153.0707,-56.130085)"
         d="m -919.28571,345.57648 a 5,6.0714288 0 1 1 -10,0 5,6.0714288 0 1 1 10,0 z"
         sodipodi:ry="6.0714288"
         sodipodi:rx="5"
         sodipodi:cy="345.57648"
         sodipodi:cx="-924.28571"
         id="path3043"
         style="fill:#ff9955;fill-opacity:1;fill-rule:nonzero;stroke:none"
         sodipodi:type="arc" />
      <g
         transform="translate(36.769553,7.0710678)"
         id="g3382">
        <path
           style="fill:#d7eef4;fill-opacity:1;fill-rule:nonzero;stroke:none"
           d="m -92.631406,324.12807 0,67.01203 94.18581,46.58153 9.009075,-106.23857 z"
           id="path3015"
           inkscape:connector-curvature="0" />
        <path
           style="fill:#87decd;fill-opacity:1;stroke:none"
           d="m -83.622331,334.75193 -0.819013,22.06493 20.475177,8.1722 1.638015,-33.50601 z"
           id="path3815"
           inkscape:connector-curvature="0" />
        <path
           style="fill:#87decd;fill-opacity:1;fill-rule:nonzero;stroke:none"
           d="m -50.043048,337.20359 -5.733057,63.74314 51.5974485,28.6027 9.0090854,-92.34584 z"
           id="path3819"
           inkscape:connector-curvature="0" />
        <path
           style="fill:#afe9dd;fill-opacity:1;fill-rule:nonzero;stroke:none"
           d="m -83.622331,366.62351 -0.819013,13.89273 23.751206,10.62386 2.457027,-21.24772 z"
           id="path3821"
           inkscape:connector-curvature="0" />
      </g>
      <path
         inkscape:connector-curvature="0"
         id="path3823"
         d="m -106.55454,221.15836 4.91405,27.78549 48.321412,1.63443 -9.828087,-55.57094 z"
         style="fill:#deaa87;fill-opacity:1;fill-rule:nonzero;stroke:none" />
      <path
         inkscape:connector-curvature="0"
         id="path3825"
         d="m -97.54546,257.93326 2.457027,15.52718 67.977579,8.17219 -3.276025,-31.05435 z"
         style="fill:#a05a2c;fill-opacity:1;fill-rule:nonzero;stroke:none" />
      <path
         inkscape:connector-curvature="0"
         id="path3827"
         d="m -56.595107,199.91065 2.457017,19.61328 19.656175,-0.81722 -4.914033,-31.05435 z"
         style="fill:#d38d5f;fill-opacity:1;fill-rule:nonzero;stroke:none" />
      <path
         transform="matrix(1.1466099,0,0,1.1441078,153.0707,-56.130085)"
         d="m -163.57142,255.57646 a 7.1428571,7.5 0 1 1 -14.28572,0 7.1428571,7.5 0 1 1 14.28572,0 z"
         sodipodi:ry="7.5"
         sodipodi:rx="7.1428571"
         sodipodi:cy="255.57646"
         sodipodi:cx="-170.71428"
         id="path3829"
         style="fill:#d38d5f;fill-opacity:1;fill-rule:nonzero;stroke:none"
         sodipodi:type="arc" />
      <path
         transform="matrix(1.1466099,0,0,1.1441078,153.0707,-56.130085)"
         d="m -673.77178,343.23511 a 3.5355339,4.0406103 0 1 1 -7.07107,0 3.5355339,4.0406103 0 1 1 7.07107,0 z"
         sodipodi:ry="4.0406103"
         sodipodi:rx="3.5355339"
         sodipodi:cy="343.23511"
         sodipodi:cx="-677.30731"
         id="path3839"
         style="fill:#b7c4c8;fill-opacity:1;fill-rule:nonzero;stroke:none"
         sodipodi:type="arc" />
      <path
         sodipodi:nodetypes="ccccc"
         inkscape:connector-curvature="0"
         id="path3853"
         d="m -806.27321,535.3794 44.51303,6.12915 37.67432,-8.98942 -41.76935,-15.52718 z"
         style="fill:#d0e3ff;fill-opacity:1;fill-rule:nonzero;stroke:none" />
      <path
         sodipodi:nodetypes="ccccccc"
         inkscape:connector-curvature="0"
         id="path3855"
         d="m -806.02751,534.15356 4.29978,22.06494 35.87252,8.98942 34.35733,-11.19592 6.59301,-22.63698 -40.13134,9.31631 z"
         style="fill:#aaccff;fill-opacity:1;fill-rule:nonzero;stroke:none" />
      <path
         inkscape:connector-curvature="0"
         id="path3857"
         d="m -801.40313,509.63697 7.74263,21.24772 25.30931,-8.17221 -11.36222,-22.88214 -12.39098,-2.45167 z"
         style="fill:#aaccff;fill-opacity:1;fill-rule:nonzero;stroke:none" />
      <path
         inkscape:connector-curvature="0"
         id="path4486"
         d="m -769.95025,415.65669 78.54278,0 1.71991,46.90842 -105.48811,0 z"
         style="fill:#82999f;fill-opacity:1;fill-rule:nonzero;stroke:none" />
      <path
         inkscape:connector-curvature="0"
         id="path3859"
         d="m -831.37578,440.99051 54.05447,-2.45167 18.01815,51.48485 -70.43461,22.06495 z"
         style="fill:#aaccff;fill-opacity:1;fill-rule:nonzero;stroke:none" />
      <path
         inkscape:connector-curvature="0"
         id="path3861"
         d="m -772.40727,561.93904 2.45702,18.79606 14.74213,-0.81722 -0.819,-26.15103 z"
         style="fill:#aaccff;fill-opacity:1;fill-rule:nonzero;stroke:none" />
      <path
         inkscape:connector-curvature="0"
         id="path3863"
         d="m -775.6833,580.7351 0,18.79605 12.2851,1.63444 15.56114,-1.63444 -3.27603,-19.61327 z"
         style="fill:#aaccff;fill-opacity:1;fill-rule:nonzero;stroke:none" />
      <path
         inkscape:connector-curvature="0"
         id="path3865"
         d="m -773.22627,597.0795 -39.31235,33.506 47.50241,-25.33381 6.55206,35.95768 6.55205,-35.14046 38.49333,29.41992 -32.76028,-38.40933 z"
         style="fill:#aaccff;fill-opacity:1;fill-rule:nonzero;stroke:none" />
      <path
         sodipodi:nodetypes="cccccccccccccc"
         inkscape:connector-curvature="0"
         id="path3867"
         d="m -1018.1336,600.09363 10.6471,84.17364 40.95037,8.17221 39.31233,-12.2583 7.37107,-87.44253 -34.3983,-12.25829 -36.03631,2.45166 -27.42436,17.11234 39.70947,-15.4779 36.03631,3.26888 17.19915,7.35498 -23.75121,10.62385 -46.6834,2.45167 z"
         style="fill:#5d6c53;fill-opacity:1;fill-rule:nonzero;stroke:none" />
      <path
         sodipodi:nodetypes="ccccccccccccccccccccccccccccccccccccccccccccccccccccccc"
         inkscape:connector-curvature="0"
         id="path3879"
         d="m -616.00788,358.52659 1.15824,10.40153 -19.11114,-5.77863 -27.21889,41.60605 -17.95288,-20.80303 -5.79127,-19.06943 -4.633,0 -9.26601,4.04504 2.89562,17.33584 11.00339,1.15572 21.42765,42.76176 16.21551,-12.71295 -8.10776,31.20453 2.50456,65.40743 6.76145,51.32063 6.94951,58.36403 2.89562,9.82366 -9.26601,13.29081 0,11.55724 19.69026,1.73358 17.37377,-3.46717 0.57914,-17.91371 -9.26601,-9.24578 -1.73739,-44.49537 5.47259,-69.13307 2.05605,-22.16907 6.9495,30.62667 17.95289,86.67926 10.42426,41.60604 46.33002,0.57786 0,-9.24579 -12.16162,-15.60227 -17.37377,-1.15572 -0.57911,-27.73736 -4.63301,-58.36402 0,-43.33963 -2.31651,-59.51976 -5.79125,-35.24955 22.00677,38.13886 10.42425,15.60227 18.53201,5.7786 -6.37037,-10.97936 6.37037,-4.6229 13.89902,8.09007 -9.26601,-11.55723 8.10776,1.73358 -9.84513,-5.77862 5.79126,-5.77861 -16.21552,6.35648 -6.9495,5.77861 -34.74754,-77.43346 -12.16162,-3.46717 -11.00338,3.46717 -2.89563,-13.86868 z"
         style="fill:#afdde9;fill-opacity:1;fill-rule:nonzero;stroke:none" />
      <path
         sodipodi:nodetypes="ccccccccccc"
         inkscape:connector-curvature="0"
         id="path3869"
         d="m -629.9069,299.5847 -10.84343,15.19233 -2.12819,27.19282 16.66384,14.48183 11.05621,2.90723 16.90127,-0.1659 12.5813,-2.20571 13.27655,-12.66726 2.14238,-27.97734 -27.2189,-25.42592 z"
         style="fill:#ffccaa;fill-opacity:1;fill-rule:nonzero;stroke:none" />
      <path
         sodipodi:nodetypes="cccccccccccccccccccccccccccccccccc"
         inkscape:connector-curvature="0"
         id="path3871"
         d="m -615.42876,277.62596 -33.58929,19.06944 -12.74075,17.33585 24.90239,-9.82366 -22.58588,32.93812 15.05725,-5.77861 -12.74075,24.84806 12.74075,-4.04504 -1.0314,10.13268 19.44523,-6.18109 -14.22836,-11.99541 -0.68844,-21.82254 5.33038,-10.17535 8.08465,-8.56325 10.77454,-6.61838 -7.99633,16.5066 20.26939,-15.60225 -2.89563,14.44653 9.26601,-11.55723 5.79126,20.22516 4.633,-14.44654 11.06159,35.82742 4.5748,-17.33585 -1.67918,19.81655 -11.86368,11.93843 14.12198,5.80603 0.57912,-13.29083 16.79465,16.18014 -4.05388,-26.58164 13.89901,13.86869 -20.84852,-43.9175 -20.26939,-20.80302 -11.5825,-6.35648 z"
         style="fill:#aa8800;fill-opacity:1;fill-rule:nonzero;stroke:none" />
      <path
         sodipodi:nodetypes="cccccc"
         inkscape:connector-curvature="0"
         id="path3873-3"
         d="m -596.81282,316.42873 -7.13479,7.87295 5.29001,3.88568 9.0293,-0.67997 2.62012,-8.49902 z"
         style="fill:#6c5353;fill-opacity:1;fill-rule:nonzero;stroke:none;display:inline" />
      <path
         sodipodi:nodetypes="cccccc"
         inkscape:connector-curvature="0"
         id="path3873"
         d="m -595.90813,317.32917 -6.92466,6.69073 5.35692,3.30218 7.67341,-0.57787 1.88216,-6.19149 z"
         style="fill:#ffffff;fill-opacity:1;fill-rule:nonzero;stroke:none" />
      <path
         sodipodi:nodetypes="cccccc"
         inkscape:connector-curvature="0"
         id="path3875-3"
         d="m -625.6131,317.9462 -5.98368,4.56092 1.10062,5.86202 10.90163,-1.04901 0.23817,-6.8066 z"
         style="fill:#6c5353;fill-opacity:1;fill-rule:nonzero;stroke:none;display:inline" />
      <path
         sodipodi:nodetypes="cccccc"
         inkscape:connector-curvature="0"
         id="path3875"
         d="m -625.54288,318.76957 -4.99283,3.80567 0.91837,4.89129 9.09638,-0.8753 0.19873,-5.67947 z"
         style="fill:#ffffff;fill-opacity:1;fill-rule:nonzero;stroke:none" />
      <path
         sodipodi:nodetypes="cccccccc"
         inkscape:connector-curvature="0"
         id="path3877"
         d="m -622.96904,341.60237 5.36855,0.88855 15.20496,0.56481 12.87826,-4.05664 0.14915,3.34738 -13.899,2.31146 -14.99143,-1.50891 z"
         style="fill:#d35f5f;fill-opacity:1;fill-rule:nonzero;stroke:none" />
      <path
         inkscape:connector-curvature="0"
         id="path3881"
         d="m -608.47926,383.95251 24.32327,0.57787 1.73737,25.42591 -10.42426,10.4015 -13.31987,-12.13509 z"
         style="fill:#ffd42a;fill-opacity:1;fill-rule:nonzero;stroke:none" />
      <path
         inkscape:connector-curvature="0"
         id="path3883"
         d="m -654.23016,441.16082 20.26938,11.55724 44.01354,1.73358 24.32327,-9.82364 0.57912,13.29081 -28.95626,10.97937 -31.27278,-1.15572 -30.69365,-13.29082 z"
         style="fill:#2c89a0;fill-opacity:1;fill-rule:nonzero;stroke:none" />
      <path
         inkscape:connector-curvature="0"
         id="path3885"
         d="m -621.22002,449.82874 0.57913,22.53661 25.48153,-0.57787 -2.89564,-23.69231 z"
         style="fill:#ffd42a;fill-opacity:1;fill-rule:nonzero;stroke:none" />
      <path
         inkscape:connector-curvature="0"
         id="path4532"
         d="m -696.01406,360.31797 8.91853,0.80901 -4.05387,30.33773 -13.9859,-2.62926 1.62156,-5.05629 8.31045,2.02251 4.05389,-21.23642 -6.48622,-0.60675 z"
         style="fill:#d3bc5f;fill-opacity:1;fill-rule:nonzero;stroke:none" />
      <path
         inkscape:connector-curvature="0"
         id="path3887"
         d="m -737.04511,351.59226 7.52864,43.91749 22.58588,2.31144 13.89902,-45.0732 -20.26938,4.04502 z"
         style="fill:#ffeeaa;fill-opacity:1;fill-rule:nonzero;stroke:none" />
      <path
         sodipodi:nodetypes="ccccc"
         inkscape:connector-curvature="0"
         id="path3889"
         d="m -714.45921,347.54722 21.10913,5.14297 -21.10913,5.25855 -22.1226,-6.21202 z"
         style="fill:#d3bc5f;fill-opacity:1;fill-rule:nonzero;stroke:none" />
      <path
         sodipodi:nodetypes="cccccc"
         inkscape:connector-curvature="0"
         id="path3891"
         d="m -616.9865,355.59458 2.28165,14.34479 10.71381,4.33396 9.98993,-6.06755 -2.60608,-12.56849 z"
         style="fill:#ffccaa;fill-opacity:1;fill-rule:nonzero;stroke:none" />
      <path
         inkscape:connector-curvature="0"
         id="path3893"
         d="m -535.79902,445.63925 -4.48822,10.97937 18.96637,6.21201 -6.80473,-11.41277 6.80473,-4.47843 14.04379,8.95687 -9.12123,-12.42403 9.55557,3.3227 -11.14817,-7.65667 6.65995,-6.06755 -19.11114,6.93435 z"
         style="fill:#ffccaa;fill-opacity:1;fill-rule:nonzero;stroke:none" />
      <path
         inkscape:connector-curvature="0"
         id="path3895"
         d="m -679.42212,383.23018 -5.35692,-18.20264 -4.48822,-0.57787 -7.6734,1.44467 -4.19867,6.6454 2.89563,0.14447 -0.72391,3.90057 1.88215,2.60038 -1.88215,1.87805 2.46129,2.8893 -1.30303,1.73359 5.93603,2.16698 6.80472,-0.57786 z"
         style="fill:#ffccaa;fill-opacity:1;fill-rule:nonzero;stroke:none" />
      <path
         sodipodi:nodetypes="cccccc"
         inkscape:connector-curvature="0"
         id="path3897"
         d="m -653.17129,507.52002 39.4508,5.70426 -3.44564,118.34196 -8.97646,3.17824 -11.65277,-0.50775 z"
         style="fill:#ffccaa;fill-opacity:1;fill-rule:nonzero;stroke:none" />
      <path
         sodipodi:nodetypes="cccccc"
         inkscape:connector-curvature="0"
         id="path3899"
         d="m -607.32101,512.52674 42.85529,-6.93435 5.50168,122.21776 -10.13468,5.77862 -12.4512,-1.7336 z"
         style="fill:#ffccaa;fill-opacity:1;fill-rule:nonzero;stroke:none" />
      <path
         inkscape:connector-curvature="0"
         id="path3901"
         d="m -625.82687,319.8254 -3.18661,1.87373 1.25188,3.69068 2.44687,0.28389 2.61758,-2.66865 z"
         style="fill:#22241c;fill-opacity:1;fill-rule:nonzero;stroke:none" />
      <path
         inkscape:connector-curvature="0"
         id="path3903"
         d="m -596.48812,318.24717 -2.93359,2.29585 1.20795,4.07512 3.62387,0.11479 2.58847,-1.83666 -0.2876,-3.44378 z"
         style="fill:#22241c;fill-opacity:1;fill-rule:nonzero;stroke:none" />
      <path
         inkscape:connector-curvature="0"
         id="path3905"
         d="m -633.98973,362.94725 11.55356,3.64052 -18.44515,24.47245 z"
         style="fill:#2c89a0;fill-opacity:1;fill-rule:nonzero;stroke:none" />
      <path
         inkscape:connector-curvature="0"
         id="path3907"
         d="m -577.03274,387.82419 -9.52662,-21.84317 7.0943,-2.02252 8.71583,4.44954 z"
         style="fill:#2c89a0;fill-opacity:1;fill-rule:nonzero;stroke:none" />
      <path
         inkscape:connector-curvature="0"
         id="path3909"
         d="m -653.65104,503.30986 18.24245,5.05627 23.1071,1.01127 -1.01346,9.10132 -23.71519,-1.21351 -16.6209,-2.42702 z"
         style="fill:#2c89a0;fill-opacity:1;fill-rule:nonzero;stroke:none" />
      <path
         inkscape:connector-curvature="0"
         id="path3911"
         d="m -607.63953,510.38865 19.05323,-1.21351 24.32328,-5.86528 0.40538,8.2923 -22.70172,6.06755 -20.06669,0.20226 z"
         style="fill:#2c89a0;fill-opacity:1;fill-rule:nonzero;stroke:none" />
      <path
         inkscape:connector-curvature="0"
         id="path3913"
         d="m -637.84091,631.94186 11.14816,1.41576 10.54008,-4.85403 2.83772,5.25853 -13.3778,6.47205 -12.76972,-3.03377 z"
         style="fill:#2c89a0;fill-opacity:1;fill-rule:nonzero;stroke:none" />
      <path
         inkscape:connector-curvature="0"
         id="path3915"
         d="m -581.6947,628.09908 12.16162,2.83152 11.14818,-6.06755 4.05388,3.84279 -14.39127,7.68555 -13.17511,-2.02252 -1.62155,-7.0788 z"
         style="fill:#2c89a0;fill-opacity:1;fill-rule:nonzero;stroke:none" />
      <path
         inkscape:connector-curvature="0"
         id="path3859-1"
         d="m -822.89906,443.60152 45.85622,-2.07982 15.2854,43.6763 -59.75204,18.71843 z"
         style="fill:#d0e3ff;fill-opacity:1;fill-rule:nonzero;stroke:none;display:inline" />
      <path
         inkscape:connector-curvature="0"
         id="path3857-7"
         d="m -793.64253,513.08369 5.99672,16.45651 19.60225,-6.32942 -8.80012,-17.72241 -9.59691,-1.89883 z"
         style="fill:#d0e3ff;fill-opacity:1;fill-rule:nonzero;stroke:none;display:inline" />
      <path
         sodipodi:nodetypes="ccccc"
         inkscape:connector-curvature="0"
         id="path3861-4"
         d="m -767.37038,564.86865 1.67525,15.00838 10.05144,-0.65255 1.16151,-17.7349 z"
         style="fill:#d0e3ff;fill-opacity:1;fill-rule:nonzero;stroke:none;display:inline" />
      <path
         inkscape:connector-curvature="0"
         id="path3863-0"
         d="m -766.67421,580.72253 0,14.74767 7.99504,1.28241 10.12705,-1.28241 -2.132,-15.38888 z"
         style="fill:#d0e3ff;fill-opacity:1;fill-rule:nonzero;stroke:none;display:inline" />
      <path
         inkscape:connector-curvature="0"
         id="path3991"
         d="m -996.05696,598.80185 14.59396,-6.87654 0.40538,-31.95576 0,-31.14674 -5.67543,-39.64132 -23.51245,-12.5396 -12.9725,6.87657 2.4324,7.28105 -6.8916,-6.87656 5.6754,-10.51708 -21.0802,-7.28106 -18.2424,-17.39363 21.0802,12.53959 11.3508,-0.4045 -6.0808,-26.69722 7.297,24.2702 11.7562,3.23602 11.7563,2.02252 1.6215,-16.18012 -9.3239,-13.75311 8.1078,7.28106 11.35083,12.9441 6.08081,0 -7.29698,-32.36026 -3.2431,-9.30357 -26.75556,-4.85404 -7.297,-14.96662 8.9185,8.89907 21.891,4.04503 0.81074,-1.61801 0,-19.01164 4.86464,12.9441 3.64849,-26.29271 4.86466,34.38277 2.43233,29.52873 9.32391,18.20264 13.37781,0.809 21.89093,-38.02329 29.9987,-19.41615 -23.10711,19.82065 11.35087,3.23603 -16.6209,3.23602 -6.08082,16.18014 15.81012,0 -17.43167,5.25853 -5.27004,11.7306 -1.21617,12.9441 17.83707,-1.21352 32.8364,-17.79813 -28.78252,23.05668 -4.86466,3.64052 9.7293,5.66305 -12.56701,-2.02252 -11.75625,1.21351 -2.02694,14.96662 4.45927,7.28106 21.89093,-3.64053 7.29699,2.42702 12.9724,-11.32608 -8.51314,14.56211 4.86466,10.51709 -10.13469,-7.28107 -14.18857,-0.809 -9.32393,4.04503 -8.91853,22.24767 -4.45927,33.16927 -0.81077,19.82064 c 0,0 4.05389,7.28106 6.48621,7.28106 2.43232,0 9.7293,2.42703 9.7293,2.42703 l -10.1347,4.44953 -16.6209,-6.87656 -8.51315,0.40451 -5.27003,8.09006 -3.64849,-4.04503 z"
         style="fill:#a0892c;fill-opacity:1;fill-rule:nonzero;stroke:none" />
      <path
         style="fill:#f6a824;fill-opacity:1;fill-rule:nonzero;stroke:none"
         d="m -433.24992,403.44009 -8.56027,3.0623 -8.29276,5.86939 -1.33754,3.31749 -0.26751,4.59344 -4.81515,3.95546 1.07003,7.14537 2.27382,3.95546 5.08266,2.8071 6.55395,1.02077 4.01263,4.97622 -0.53502,9.31448 35.31111,-14.5459 -2.67509,-9.31447 -1.87257,-10.08006 -4.94889,-7.27295 -4.6814,-5.48661 -7.49023,-3.95546 z"
         id="path4407-13"
         inkscape:connector-curvature="0" />
      <path
         style="fill:#f9c46b;fill-opacity:1;fill-rule:nonzero;stroke:none"
         d="m -430.57485,393.36004 -1.20377,2.9347 -0.40127,4.72103 -1.33754,4.46586 3.2101,-0.63798 5.48393,4.59345 3.87886,2.93468 0.40126,-5.10382 -0.80252,-5.7418 -2.9426,-4.59344 z"
         id="path4409-8"
         inkscape:connector-curvature="0" />
      <path
         style="fill:#eba90a;fill-opacity:1;fill-rule:nonzero;stroke:none"
         d="m -446.09032,398.46386 0.535,5.10384 0.53503,5.6142 7.08897,-3.57269 -0.93628,-2.42431 -2.80884,-2.29672 z"
         id="path4411-7"
         inkscape:connector-curvature="0" />
      <path
         style="fill:#ffffff;fill-opacity:1;fill-rule:nonzero;stroke:none"
         d="m -436.92817,416.39105 -2.20693,-1.97773 -3.47761,0.12759 -1.4713,0.51039 -2.67509,5.5504 0.53502,1.08457 4.14638,0.0638 2.14006,-0.12761 3.14323,-1.97773 z"
         id="path4433-4"
         inkscape:connector-curvature="0" />
      <path
         style="fill:#f8f150;fill-opacity:1;fill-rule:nonzero;stroke:none"
         d="m -445.82282,420.79309 1.27068,-2.36052 1.60504,-2.8709 2.47446,-0.51037 1.53816,0.51037 1.67192,2.04154 -0.13374,1.33975 -3.27698,2.04153 z"
         id="path4413-27"
         inkscape:connector-curvature="0" />
      <path
         style="fill:#ffffff;fill-opacity:1;fill-rule:nonzero;stroke:none"
         d="m -453.06849,426.80103 3.67825,-1.02076 4.81515,3.89167 -0.46815,4.72103 -4.74827,1.97773 -2.14007,-0.63798 -1.40442,-1.40354 -1.67192,-2.8709 -0.66878,-3.12609 0,-1.40356 0.93628,-0.31899 z"
         id="path4431-7"
         inkscape:connector-curvature="0" />
      <path
         style="fill:#f77e3a;fill-opacity:1;fill-rule:nonzero;stroke:none"
         d="m -452.97866,425.38654 -1.53818,-0.63798 -1.67192,-0.12759 1.80567,2.42431 z"
         id="path4415-9"
         inkscape:connector-curvature="0" />
      <path
         style="fill:#f77e3a;fill-opacity:1;fill-rule:nonzero;stroke:none"
         d="m -454.31621,427.17287 0.33439,3.1261 1.07003,2.42432 4.61451,1.02076 2.80885,-0.89317 -2.60821,1.14836 -4.9489,-1.08455 -1.2038,0.31898 1.00318,-0.63799 -0.93629,-2.42431 z"
         id="path4417-3"
         inkscape:connector-curvature="0" />
      <path
         style="fill:#1f0c01;fill-opacity:1;fill-rule:nonzero;stroke:none"
         d="m -443.08085,416.58244 -0.46815,1.91394 0.33438,1.33975 1.27068,0.82937 0.0668,-2.36052 z"
         id="path4419-1"
         inkscape:connector-curvature="0" />
      <path
         style="fill:#0788bd;fill-opacity:1;fill-rule:nonzero;stroke:none"
         d="m -403.04786,437.3772 -9.647,5.41344 -10.97111,4.15028 -14.18677,5.05254 -0.37831,3.24806 1.89157,1.80447 15.51087,-7.03746 8.70122,-2.7067 8.3229,-4.51119 2.26989,0.18044 0.75662,-3.24805 z"
         id="path4421-9"
         inkscape:connector-curvature="0" />
      <path
         style="fill:#4ac5f8;fill-opacity:1;fill-rule:nonzero;stroke:none"
         d="m -434.4754,476.50211 -8.63048,20.62023 -7.9907,21.14815 4.73777,7.11032 8.07928,-1.01571 3.15471,-7.42656 -1.63217,-4.12096 14.17162,-28.21161 9.76053,-7.31072 -6.73653,-11.32037 -11.43703,-6.87646 z"
         id="path4425-1-8"
         inkscape:connector-curvature="0" />
      <path
         style="fill:#f6a824;fill-opacity:1;fill-rule:nonzero;stroke:none"
         d="m -389.2448,588.32615 9.09528,18.37377 10.70033,20.92568 14.44545,3.57268 10.16531,4.08306 1.60506,8.16612 -8.02525,5.10383 -10.70034,-5.10383 -11.77036,-4.59344 -8.56027,-6.63497 -4.81515,-14.29072 -5.88519,-12.75956 z"
         id="path4453-65"
         inkscape:connector-curvature="0" />
      <path
         inkscape:connector-curvature="0"
         id="path4472"
         d="m -384.68933,412.79642 73.95633,0 28.09195,44.6202 -116.95421,0 z"
         style="fill:#a4b5b9;fill-opacity:1;fill-rule:nonzero;stroke:none" />
      <path
         style="fill:#6bd0f9;fill-opacity:1;fill-rule:nonzero;stroke:none"
         d="m -401.34545,441.70796 -27.23859,10.10506 -9.07954,5.7743 -2.6482,12.27044 0.37831,13.714 3.40482,12.63132 -1.89157,21.65371 1.89157,19.84921 3.78315,16.96206 -3.78315,41.14203 0.75663,8.66147 5.67473,13.35312 -12.10605,12.99221 -1.89158,5.41342 4.16145,2.16538 27.23861,-20.57101 -3.78314,-16.24027 6.43133,-10.46596 6.43135,9.74417 1.51325,20.9319 10.97109,24.54085 6.05302,0 1.89159,-6.4961 -6.05303,-16.60117 3.78313,-22.37548 -0.37831,-9.74417 5.2964,-21.2928 1.89158,-42.94649 -2.6482,-35.36772 -7.56629,-23.09727 -5.67471,-22.01459 z"
         id="path4423-0"
         inkscape:connector-curvature="0" />
      <path
         style="fill:#98defb;fill-opacity:1;fill-rule:nonzero;stroke:none"
         d="m -417.96918,482.43684 -3.7303,21.91608 -2.98559,22.29887 6.24336,5.9591 7.65524,-2.66524 1.38874,-7.9029 -2.53136,-3.68446 7.411,-30.47426 7.86332,-9.15832 -9.15286,-9.65458 -12.72949,-4.34298 z"
         id="path4425-2"
         inkscape:connector-curvature="0" />
      <path
         style="fill:#0788bd;fill-opacity:1;fill-rule:nonzero;stroke:none"
         d="m -397.03595,483.18571 -6.36106,-7.06775 -7.11573,-4.21985 -6.84404,-2.57652 -1.5574,0.63059 0.21285,2.54382 -2.43127,-3.39893 1.63925,-4.78405 8.0474,1.56328 10.47864,4.96221 4.66196,6.96671 1.08619,3.68054 z"
         id="path4427-8"
         inkscape:connector-curvature="0" />
      <path
         sodipodi:type="arc"
         style="fill:#f7fca9;fill-opacity:1;fill-rule:nonzero;stroke:none"
         id="path4481-6"
         sodipodi:cx="415.07169"
         sodipodi:cy="315.55692"
         sodipodi:rx="13.081475"
         sodipodi:ry="24.748737"
         d="m 428.15316,315.55692 a 13.081475,24.748737 0 1 1 -26.16295,0 13.081475,24.748737 0 1 1 26.16295,0 z"
         transform="matrix(-0.37451165,0,0,0.35726774,-278.41234,353.3481)" />
      <path
         inkscape:connector-curvature="0"
         id="path4488"
         d="m -278.62792,444.25938 4.01313,11.44108 94.02202,-0.57205 -7.45297,-16.58957 -95.74192,0.57206 z"
         style="fill:#82999f;fill-opacity:1;fill-rule:nonzero;stroke:none" />
      <path
         inkscape:connector-curvature="0"
         id="path4484"
         d="m -232.49592,417.94491 8.59958,18.30572 34.39829,-1.14411 -12.03941,-20.02189 -32.67838,0 z"
         style="fill:#82999f;fill-opacity:1;fill-rule:nonzero;stroke:none" />
      <path
         inkscape:connector-curvature="0"
         id="path4482"
         d="m -293.53385,415.65669 10.31949,21.166 47.58431,0.57205 -12.61271,-23.45421 z"
         style="fill:#93a7ac;fill-opacity:1;fill-rule:nonzero;stroke:none" />
      <path
         transform="matrix(1.1466099,0,0,1.1441078,153.0707,-56.130085)"
         d="m -497,149.36218 a 35,34 0 1 1 -70,0 35,34 0 1 1 70,0 z"
         sodipodi:ry="34"
         sodipodi:rx="35"
         sodipodi:cy="149.36218"
         sodipodi:cx="-532"
         id="path4490"
         style="fill:#ffd42a;fill-opacity:1;fill-rule:nonzero;stroke:none"
         sodipodi:type="arc" />
      <path
         transform="matrix(1.1297939,-0.19522549,0.19565244,1.1273286,114.29777,-157.62875)"
         d="m -448,152.36218 a 85,11 0 1 1 -170,0 85,11 0 1 1 170,0 z"
         sodipodi:ry="11"
         sodipodi:rx="85"
         sodipodi:cy="152.36218"
         sodipodi:cx="-533"
         id="path4492"
         style="fill:#ffd42a;fill-opacity:1;fill-rule:nonzero;stroke:none"
         sodipodi:type="arc" />
      <path
         transform="matrix(1.1466099,0,0,1.1441078,157.65714,-61.850623)"
         d="m -530,112.86219 a 8,8.5 0 1 1 -16,0 8,8.5 0 1 1 16,0 z"
         sodipodi:ry="8.5"
         sodipodi:rx="8"
         sodipodi:cy="112.86219"
         sodipodi:cx="-538"
         id="path4494"
         style="fill:#ffcc00;fill-opacity:1;fill-rule:nonzero;stroke:none"
         sodipodi:type="arc" />
      <g
         transform="translate(62.225397,35.355338)"
         id="g3373">
        <path
           sodipodi:type="arc"
           style="fill:#225500;fill-opacity:1;fill-rule:nonzero;stroke:none"
           id="path3993"
           sodipodi:cx="-71"
           sodipodi:cy="365.36218"
           sodipodi:rx="26"
           sodipodi:ry="78"
           d="m -45,365.36218 a 26,78 0 1 1 -52,0 26,78 0 1 1 52,0 z"
           transform="matrix(1.1466099,0,0,1.1441078,153.0707,-56.130085)" />
        <path
           sodipodi:type="arc"
           style="fill:#ff0000;fill-opacity:1;fill-rule:nonzero;stroke:none"
           id="path3995"
           sodipodi:cx="-71.5"
           sodipodi:cy="366.36218"
           sodipodi:rx="3.5"
           sodipodi:ry="63"
           d="m -68,366.36218 a 3.5,63 0 1 1 -7,0 3.5,63 0 1 1 7,0 z"
           transform="matrix(6.0606522,0,0,1.1441078,503.27811,-56.130085)" />
        <path
           sodipodi:type="arc"
           style="fill:#225500;fill-opacity:1;fill-rule:nonzero;stroke:none;display:inline"
           id="path3995-9"
           sodipodi:cx="-71.5"
           sodipodi:cy="366.36218"
           sodipodi:rx="3.5"
           sodipodi:ry="63"
           d="m -68,366.36218 a 3.5,63 0 1 1 -7,0 3.5,63 0 1 1 7,0 z"
           transform="matrix(4.2588367,0,0,0.80396762,374.87532,69.661922)" />
        <path
           sodipodi:type="arc"
           style="fill:#ff0000;fill-opacity:1;fill-rule:nonzero;stroke:none;display:inline"
           id="path3995-4"
           sodipodi:cx="-71.5"
           sodipodi:cy="366.36218"
           sodipodi:rx="3.5"
           sodipodi:ry="63"
           d="m -68,366.36218 a 3.5,63 0 1 1 -7,0 3.5,63 0 1 1 7,0 z"
           transform="matrix(2.784624,0,0,0.52567114,269.61541,171.52397)" />
        <path
           sodipodi:type="arc"
           style="fill:#225500;fill-opacity:1;fill-rule:nonzero;stroke:none;display:inline"
           id="path3995-8"
           sodipodi:cx="-71.5"
           sodipodi:cy="366.36218"
           sodipodi:rx="3.5"
           sodipodi:ry="63"
           d="m -68,366.36218 a 3.5,63 0 1 1 -7,0 3.5,63 0 1 1 7,0 z"
           transform="matrix(1.3468117,0,0,0.25424618,165.21931,271.02566)" />
        <path
           style="fill:#241c1c;fill-opacity:1;fill-rule:nonzero;stroke:none"
           d="m 53.435959,407.50511 27.870589,8.28587 -26.364082,13.55869 6.779388,-14.31195 z"
           id="path12902"
           inkscape:connector-curvature="0" />
        <path
           style="fill:#241c1c;fill-opacity:1;fill-rule:nonzero;stroke:none;display:inline"
           d="m 41.760423,338.58176 21.143207,6.28584 -20.000341,10.2859 5.142985,-10.85735 z"
           id="path12902-6"
           inkscape:connector-curvature="0" />
      </g>
      <path
         inkscape:connector-curvature="0"
         id="path12942"
         d="m -118.34395,553.61392 1.06527,83.09117 120.3756662,0 -2.1305428,-86.28698 z"
         style="fill:#aaccff;fill-opacity:1;fill-rule:nonzero;stroke:none" />
      <path
         inkscape:connector-curvature="0"
         id="path12964"
         d="m -0.098828,550.41811 3.1958142,99.07024 40.4803128,33.02341 0,-93.74388 z"
         style="fill:#aaccff;fill-opacity:1;fill-rule:nonzero;stroke:none" />
      <path
         inkscape:connector-curvature="0"
         id="path12966"
         d="m -101.73575,579.62517 -1.50652,-15.06522 8.662498,-4.14293 1.506517,-13.93532 7.155982,2.63641 9.79239,-8.28587 7.155971,-10.16901 7.155972,6.77934 9.039136,8.28586 5.272817,-6.77934 5.272827,7.53261 12.052172,-4.89619 1.883154,-5.64947 16.948362,6.02609 5.2728271,8.6625 10.1690168,5.27282 10.1690171,3.01305 1.129891,13.18206 4.519563,4.89619 5.272848,9.79239 3.389694,9.79239 -45.948948,13.55869 -77.209209,3.01304 z"
         style="fill:#ff80e5;fill-opacity:1;fill-rule:nonzero;stroke:none" />
      <path
         inkscape:connector-curvature="0"
         id="path12966-6"
         d="m 5.4319376,584.72342 1.2519815,-12.51995 -7.1989443,-3.44298 -1.2519815,-11.58096 -5.9470587,2.191 -8.1378856,-6.88597 -5.947048,-8.45097 -5.946962,5.63398 -7.511953,6.88597 -4.381971,-5.63398 -4.381983,6.25997 -10.01597,-4.06897 -1.565,-4.69499 -14.084934,5.00799 -4.381994,7.19896 -8.450957,4.38198 -8.450958,2.50399 -0.938994,10.95496 -3.755987,4.06898 -4.382008,8.13797 -2.817,8.13797 38.185878,11.26795 64.1647668,2.50398 z"
         style="fill:#ffadee;fill-opacity:1;fill-rule:nonzero;stroke:none;display:inline" />
      <path
         inkscape:connector-curvature="0"
         id="path12966-1"
         d="m -60.978944,586.57735 -0.946483,-9.46493 5.442312,-2.60285 0.946494,-8.75507 4.495893,1.65636 6.152144,-5.20571 4.495904,-6.38882 4.495829,4.25922 5.678951,5.2057 3.312717,-4.25922 3.312728,4.73247 7.571949,-3.0761 1.183122,-3.54936 10.6480375,3.78599 3.3127309,5.44233 6.3888278,3.31272 6.3888268,1.89299 0.70987,8.28181 2.839479,3.0761 3.31274,6.15221 2.129623,6.15221 -28.8680721,8.51843 -48.5077939,1.893 z"
         style="fill:#ff80e5;fill-opacity:1;fill-rule:nonzero;stroke:none;display:inline" />
      <path
         sodipodi:nodetypes="ccccc"
         inkscape:connector-curvature="0"
         id="path12942-3"
         d="m -89.58163,592.81197 1.170488,91.2977 132.264619,0 -0.08118,-94.80916 z"
         style="fill:#c9dfff;fill-opacity:1;fill-rule:nonzero;stroke:none;display:inline" />
      <path
         inkscape:connector-curvature="0"
         id="path12962"
         d="m -116.21341,635.63982 29.827599,50.06776 0,-91.61334 -31.958139,-41.54559 z"
         style="fill:#b9d5ff;fill-opacity:1;fill-rule:nonzero;stroke:none" />
      <g
         transform="translate(24.041631,-513.35952)"
         id="g3566">
        <path
           inkscape:connector-curvature="0"
           id="path4425-1-8-9"
           d="m -278.88314,989.29781 16.73674,-15.81176 17.46546,-15.25369 8.46179,3.17665 1.84538,9.34112 -6.01172,5.74662 -4.51576,-0.59527 -22.07392,24.27712 -3.59662,13.1016 -13.19074,-4.1555 -10.57457,-10.74052 z"
           style="fill:#4ac5f8;fill-opacity:1;fill-rule:nonzero;stroke:none" />
        <path
           inkscape:connector-curvature="0"
           id="path4425-2-3"
           d="m -331.93486,967.6727 -5,5 -5,-15 -10,-5 -5,5 5,10 0,10 10,10 26.75097,-7.63051 2.15002,-14.28977 -3.90099,-13.07972 z"
           style="fill:#98defb;fill-opacity:1;fill-rule:nonzero;stroke:none"
           sodipodi:nodetypes="cccccccccccc" />
        <path
           inkscape:connector-curvature="0"
           id="path4427-8-1"
           d="m -313.54682,984.27625 -2.83937,-9.88741 0.10254,-9.35035 1.41693,-8.30576 1.40478,-1.32554 2.14721,1.40117 -1.70568,-4.10264 -5.14332,-0.51618 -2.9702,9.08596 -1.26454,13.18859 3.67021,8.07528 2.685,2.83584 z"
           style="fill:#0788bd;fill-opacity:1;fill-rule:nonzero;stroke:none" />
        <path
           inkscape:connector-curvature="0"
           id="path4427-8-1-1"
           d="m -269.02907,987.47027 4.65074,-9.17571 1.66038,-9.20231 -1.21691,-7.41955 0.25967,-2.57083 -2.37272,0.97168 0.11305,-5.40085 7.48333,2.15464 1.20579,9.48278 -1.24207,13.19072 -5.12544,7.2395 -3.17102,2.2794 z"
           style="fill:#0788bd;fill-opacity:1;fill-rule:nonzero;stroke:none;display:inline"
           sodipodi:nodetypes="ccccccccccccc" />
        <path
           inkscape:connector-curvature="0"
           id="path4423-0-4"
           d="m -308.93486,947.6727 12,0 30,4 5,11 0,25 -1.44708,15.2549 2.21647,21.7214 -2.21647,19.9114 -4.43293,17.0151 4.43293,41.2708 -0.88659,8.6886 -7.66633,11.1378 5,-10 5,5 -5,5 -15,0 -4.94161,-14.034 -7.53598,-10.4987 -7.53598,9.7747 -1.77318,20.9974 -18.21325,-6.2394 -5,-5 5,-5 5,0 5,10 -11.29163,-14.758 0.44329,-9.7747 -6.2061,-21.3594 -2.21647,-43.0809 3.10306,-35.47847 8.86585,-23.16957 2.302,-17.37896 z"
           style="fill:#6bd0f9;fill-opacity:1;fill-rule:nonzero;stroke:none"
           sodipodi:nodetypes="ccccccccccccccccccccccccccccccccc" />
        <path
           inkscape:connector-curvature="0"
           id="path4453-65-5"
           d="m -296.51337,1072.0045 -5.42149,25.6682 -5,20 -5,10 -10,5 0,5 5,0 10,0 10,-5 5,-15 0,-15 0,-25 z"
           style="fill:#241c1c;fill-opacity:1;fill-rule:nonzero;stroke:none"
           sodipodi:nodetypes="ccccccccccccc" />
        <g
           id="g3548"
           transform="matrix(0.89637381,0,0,0.95212795,-29.0995,46.263642)">
          <path
             sodipodi:nodetypes="ccccccccccccscccscccscccc"
             inkscape:connector-curvature="0"
             id="path3497"
             d="m -289.84195,898.47919 6.18383,-0.30413 9.4278,1.31787 7.29894,4.56184 3.44673,6.69069 4.25771,3.9536 -1.62198,11.96215 -0.30413,6.08246 -1.21649,3.75084 -4.76458,6.2852 -4.76459,3.1426 -2.43298,1.92611 c 0,0 -9.8333,0.20275 -10.34017,0 -0.50687,-0.20274 -11.86078,-1.11511 -11.86078,-1.11511 l -5.77833,-0.91237 -2.43298,-3.75085 c 0,0 -3.75085,-6.69069 -3.9536,-7.19756 -0.20275,-0.50688 -1.11511,-7.90719 -1.11511,-7.90719 l 0.81099,-5.98108 2.02748,-13.07727 c 0,0 0.70962,3.04122 1.31787,2.53435 0.60824,-0.50687 6.2852,-1.62199 6.2852,-1.62199 l 2.33161,-6.08245 3.95359,-3.44672 z"
             style="fill:#241c1c;fill-opacity:1;fill-rule:nonzero;stroke:none" />
          <path
             sodipodi:nodetypes="ccccccccccccc"
             inkscape:connector-curvature="0"
             id="path3499"
             d="m -288.4706,901.31982 -3.50505,-5.12169 -5.59512,-3.85991 -6.77367,-3.48275 -1.85335,4.94428 -0.77827,4.21655 -0.83173,4.7307 0.51039,4.51046 0.0295,6.05953 2.65766,-1.72247 2.75074,2.7646 11.84565,-3.96518 z"
             style="fill:#241c1c;fill-opacity:1;fill-rule:nonzero;stroke:none" />
          <path
             sodipodi:nodetypes="cccccccccc"
             inkscape:connector-curvature="0"
             id="path3501"
             d="m -277.20748,907.63658 3.41525,-4.718 4.24184,-4.84281 7.39219,-5.71638 2.87784,6.37861 0.78835,12.96026 -1.91025,4.63994 -0.6703,5.77057 -0.1559,0.94356 z"
             style="fill:#241c1c;fill-opacity:1;fill-rule:nonzero;stroke:none" />
        </g>
        <path
           inkscape:connector-curvature="0"
           id="path4421-9-7"
           d="m -301.49997,944.56277 7.36374,0.39832 9.74374,-0.0871 11.27729,2.93276 1.62199,2.43298 0.81099,2.43298 -14.59788,-2.43298 -9.32643,-1.21649 -8.10994,0 -0.32332,-0.95288 -0.0822,-1.8856 z"
           style="fill:#0788bd;fill-opacity:1;fill-rule:nonzero;stroke:none"
           sodipodi:nodetypes="cccccccccccc" />
      </g>
    </g>
  </g>
</svg>
