<?xml version="1.0" encoding="UTF-8" standalone="no"?>
<!-- Created with Inkscape (http://www.inkscape.org/) -->

<svg
   xmlns:dc="http://purl.org/dc/elements/1.1/"
   xmlns:cc="http://creativecommons.org/ns#"
   xmlns:rdf="http://www.w3.org/1999/02/22-rdf-syntax-ns#"
   xmlns:svg="http://www.w3.org/2000/svg"
   xmlns="http://www.w3.org/2000/svg"
   xmlns:sodipodi="http://sodipodi.sourceforge.net/DTD/sodipodi-0.dtd"
   xmlns:inkscape="http://www.inkscape.org/namespaces/inkscape"
   width="3600"
   height="380.90692"
   id="svg35688"
   version="1.1"
   inkscape:version="0.48.4 r9939"
   sodipodi:docname="sky.svg">
  <defs
     id="defs35690" />
  <sodipodi:namedview
     id="base"
     pagecolor="#ffffff"
     bordercolor="#666666"
     borderopacity="1.0"
     inkscape:pageopacity="0.0"
     inkscape:pageshadow="2"
     inkscape:zoom="0.25"
     inkscape:cx="1637.6897"
     inkscape:cy="-192.714"
     inkscape:document-units="px"
     inkscape:current-layer="layer15"
     showgrid="false"
     showborder="false"
     inkscape:showpageshadow="false"
     fit-margin-top="0"
     fit-margin-left="0"
     fit-margin-right="0"
     fit-margin-bottom="0"
     inkscape:window-width="1280"
     inkscape:window-height="972"
     inkscape:window-x="-8"
     inkscape:window-y="-8"
     inkscape:window-maximized="1">
    <inkscape:grid
       type="xygrid"
       id="grid35696"
       empspacing="5"
       visible="true"
       enabled="true"
       snapvisiblegridlinesonly="true"
       originx="2360.1px"
       originy="-839.93299px" />
  </sodipodi:namedview>
  <metadata
     id="metadata35693">
    <rdf:RDF>
      <cc:Work
         rdf:about="">
        <dc:format>image/svg+xml</dc:format>
        <dc:type
           rdf:resource="http://purl.org/dc/dcmitype/StillImage" />
        <dc:title />
      </cc:Work>
    </rdf:RDF>
  </metadata>
  <g
     inkscape:label="Layer 1"
     inkscape:groupmode="layer"
     id="layer1"
     transform="translate(2360.1,168.47774)" />
  <g
     inkscape:groupmode="layer"
     id="layer12"
     inkscape:label="1"
     transform="translate(2360.1,168.47774)" />
  <g
     inkscape:groupmode="layer"
     id="layer13"
     inkscape:label="2"
     transform="translate(2360.1,168.47774)" />
  <g
     inkscape:groupmode="layer"
     id="layer14"
     inkscape:label="4"
     transform="translate(2360.1,168.47774)" />
  <g
     inkscape:groupmode="layer"
     id="layer15"
     inkscape:label="33"
     transform="translate(2360.1,168.47774)">
    <g
       id="g5997">
      <g
         transform="matrix(1.0002279,0,0,1,0.53794583,0)"
         id="g5968">
        <rect
           style="fill:#00102a;fill-opacity:1;fill-rule:nonzero;stroke:none"
           id="rect37121"
           width="599.98169"
           height="380.4762"
           x="-2360.1001"
           y="-168.047"
           rx="1.7646974"
           ry="1.7650996" />
        <rect
           style="fill:#00102a;fill-opacity:1;fill-rule:nonzero;stroke:none"
           id="rect37121-6"
           width="599.98169"
           height="380.4762"
           x="-1760.219"
           y="-168.04732"
           rx="1.7646974"
           ry="1.7650996" />
        <rect
           style="fill:#00102a;fill-opacity:1;fill-rule:nonzero;stroke:none"
           id="rect37121-5"
           width="599.98169"
           height="380.4762"
           x="-1160.286"
           y="-168.04732"
           rx="1.7646974"
           ry="1.7650996" />
        <rect
           style="fill:#00102a;fill-opacity:1;fill-rule:nonzero;stroke:none"
           id="rect37121-6-8"
           width="599.98169"
           height="380.4762"
           x="-560.50104"
           y="-168.04732"
           rx="1.7646974"
           ry="1.7650996" />
        <path
           sodipodi:type="arc"
           style="fill:#d5d5ff;fill-opacity:1;fill-rule:nonzero;stroke:none"
           id="path58484"
           sodipodi:cx="130.10001"
           sodipodi:cy="90.409515"
           sodipodi:rx="50"
           sodipodi:ry="50"
           d="m 180.10001,90.409515 c 0,27.614235 -22.38577,50.000005 -50,50.000005 -27.61424,0 -50.000004,-22.38577 -50.000004,-50.000005 0,-27.614237 22.385764,-50 50.000004,-50 27.61423,0 50,22.385763 50,50 z"
           transform="matrix(1.2687006,0,0,1.2687006,-2455.1619,-214.26071)" />
        <path
           sodipodi:type="arc"
           style="fill:#d4aa00;fill-opacity:1;fill-rule:nonzero;stroke:none"
           id="path58540"
           sodipodi:cx="1105.1"
           sodipodi:cy="305.40952"
           sodipodi:rx="25"
           sodipodi:ry="25"
           d="m 1130.1,305.40952 c 0,13.80711 -11.1929,25 -25,25 -13.8071,0 -25,-11.19289 -25,-25 0,-13.80712 11.1929,-25 25,-25 13.8071,0 25,11.19288 25,25 z"
           transform="matrix(2.0182338,0,0,2.0182338,-3445.214,-730.77496)" />
        <path
           sodipodi:type="arc"
           style="fill:#afdde9;fill-opacity:1;fill-rule:nonzero;stroke:none"
           id="path58585"
           sodipodi:cx="1770.1"
           sodipodi:cy="80.409515"
           sodipodi:rx="30"
           sodipodi:ry="30"
           d="m 1800.1,80.409515 c 0,16.568543 -13.4315,30.000005 -30,30.000005 -16.5686,0 -30,-13.431462 -30,-30.000005 0,-16.568542 13.4314,-30 30,-30 16.5685,0 30,13.431458 30,30 z"
           transform="translate(-2370.4247,92.393373)" />
        <rect
           style="fill:#00102a;fill-opacity:1;fill-rule:nonzero;stroke:none"
           id="rect37121-6-8-1"
           width="599.98169"
           height="380.4762"
           x="39.307079"
           y="-168.31351"
           rx="1.7646974"
           ry="1.7650996" />
        <path
           sodipodi:type="arc"
           style="fill:#ff7f2a;fill-opacity:1;fill-rule:nonzero;stroke:none"
           id="path58641"
           sodipodi:cx="1940.1"
           sodipodi:cy="310.40952"
           sodipodi:rx="30"
           sodipodi:ry="30"
           d="m 1970.1,310.40952 c 0,16.56854 -13.4315,30 -30,30 -16.5686,0 -30,-13.43146 -30,-30 0,-16.56855 13.4314,-30 30,-30 16.5685,0 30,13.43145 30,30 z"
           transform="matrix(1.3535534,0,0,1.3535534,-2535.8727,-253.80733)" />
        <rect
           style="fill:#00102a;fill-opacity:1;fill-rule:nonzero;stroke:none"
           id="rect37121-6-8-7"
           width="599.98169"
           height="380.4762"
           x="639.09784"
           y="-168.47774"
           rx="1.7646974"
           ry="1.7650996" />
        <path
           sodipodi:type="arc"
           style="fill:#d5d5ff;fill-opacity:1;fill-rule:nonzero;stroke:none"
           id="path58484-2"
           sodipodi:cx="130.10001"
           sodipodi:cy="90.409515"
           sodipodi:rx="50"
           sodipodi:ry="50"
           d="m 180.10001,90.409515 c 0,27.614235 -22.38577,50.000005 -50,50.000005 -27.61424,0 -50.000004,-22.38577 -50.000004,-50.000005 0,-27.614237 22.385764,-50 50.000004,-50 27.61423,0 50,22.385763 50,50 z"
           transform="matrix(0.85857867,0,0,0.85857867,-1738.5314,-138.8448)" />
        <path
           sodipodi:type="arc"
           style="fill:#d5d5ff;fill-opacity:1;fill-rule:nonzero;stroke:none"
           id="path58484-2-4"
           sodipodi:cx="130.10001"
           sodipodi:cy="90.409515"
           sodipodi:rx="50"
           sodipodi:ry="50"
           d="m 180.10001,90.409515 c 0,27.614235 -22.38577,50.000005 -50,50.000005 -27.61424,0 -50.000004,-22.38577 -50.000004,-50.000005 0,-27.614237 22.385764,-50 50.000004,-50 27.61423,0 50,22.385763 50,50 z"
           transform="matrix(0.51916741,0,0,0.51916741,-997.87384,-79.167411)" />
        <path
           sodipodi:type="arc"
           style="fill:#d5d5ff;fill-opacity:1;fill-rule:nonzero;stroke:none"
           id="path58484-2-4-5"
           sodipodi:cx="130.10001"
           sodipodi:cy="90.409515"
           sodipodi:rx="50"
           sodipodi:ry="50"
           d="m 180.10001,90.409515 c 0,27.614235 -22.38577,50.000005 -50,50.000005 -27.61424,0 -50.000004,-22.38577 -50.000004,-50.000005 0,-27.614237 22.385764,-50 50.000004,-50 27.61423,0 50,22.385763 50,50 z"
           transform="matrix(0.26460897,0,0,0.26460897,283.99486,-27.86863)" />
        <path
           sodipodi:type="arc"
           style="fill:#d5d5ff;fill-opacity:1;fill-rule:nonzero;stroke:none"
           id="path58484-2-4-5-5"
           sodipodi:cx="130.10001"
           sodipodi:cy="90.409515"
           sodipodi:rx="50"
           sodipodi:ry="50"
           d="m 180.10001,90.409515 c 0,27.614235 -22.38577,50.000005 -50,50.000005 -27.61424,0 -50.000004,-22.38577 -50.000004,-50.000005 0,-27.614237 22.385764,-50 50.000004,-50 27.61423,0 50,22.385763 50,50 z"
           transform="matrix(0.34946178,0,0,0.34946178,-352.12688,-45.439627)" />
        <path
           sodipodi:type="arc"
           style="fill:#d5d5ff;fill-opacity:1;fill-rule:nonzero;stroke:none"
           id="path58484-2-4-5-1"
           sodipodi:cx="130.10001"
           sodipodi:cy="90.409515"
           sodipodi:rx="50"
           sodipodi:ry="50"
           d="m 180.10001,90.409515 c 0,27.614235 -22.38577,50.000005 -50,50.000005 -27.61424,0 -50.000004,-22.38577 -50.000004,-50.000005 0,-27.614237 22.385764,-50 50.000004,-50 27.61423,0 50,22.385763 50,50 z"
           transform="matrix(0.16561402,0,0,0.16561402,904.27884,-8.3119415)" />
        <path
           sodipodi:type="arc"
           style="fill:#afdde9;fill-opacity:1;fill-rule:nonzero;stroke:none"
           id="path58585-7"
           sodipodi:cx="1770.1"
           sodipodi:cy="80.409515"
           sodipodi:rx="30"
           sodipodi:ry="30"
           d="m 1800.1,80.409515 c 0,16.568543 -13.4315,30.000005 -30,30.000005 -16.5686,0 -30,-13.431462 -30,-30.000005 0,-16.568542 13.4314,-30 30,-30 16.5685,0 30,13.431458 30,30 z"
           transform="matrix(0.59930616,0,0,0.59930616,-1160.3113,73.022516)" />
        <path
           sodipodi:type="arc"
           style="fill:#afdde9;fill-opacity:1;fill-rule:nonzero;stroke:none"
           id="path58585-7-1"
           sodipodi:cx="1770.1"
           sodipodi:cy="80.409515"
           sodipodi:rx="30"
           sodipodi:ry="30"
           d="m 1800.1,80.409515 c 0,16.568543 -13.4315,30.000005 -30,30.000005 -16.5686,0 -30,-13.431462 -30,-30.000005 0,-16.568542 13.4314,-30 30,-30 16.5685,0 30,13.431458 30,30 z"
           transform="matrix(0.41074435,0,0,0.41074435,-320.95683,42.222747)" />
        <path
           sodipodi:type="arc"
           style="fill:#afdde9;fill-opacity:1;fill-rule:nonzero;stroke:none"
           id="path58585-7-1-1"
           sodipodi:cx="1770.1"
           sodipodi:cy="80.409515"
           sodipodi:rx="30"
           sodipodi:ry="30"
           d="m 1800.1,80.409515 c 0,16.568543 -13.4315,30.000005 -30,30.000005 -16.5686,0 -30,-13.431462 -30,-30.000005 0,-16.568542 13.4314,-30 30,-30 16.5685,0 30,13.431458 30,30 z"
           transform="matrix(0.22218254,0,0,0.22218254,585.57292,36.171705)" />
        <path
           sodipodi:type="arc"
           style="fill:#afdde9;fill-opacity:1;fill-rule:nonzero;stroke:none"
           id="path58585-7-1-1-5"
           sodipodi:cx="1770.1"
           sodipodi:cy="80.409515"
           sodipodi:rx="30"
           sodipodi:ry="30"
           d="m 1800.1,80.409515 c 0,16.568543 -13.4315,30.000005 -30,30.000005 -16.5686,0 -30,-13.431462 -30,-30.000005 0,-16.568542 13.4314,-30 30,-30 16.5685,0 30,13.431458 30,30 z"
           transform="matrix(0.12790164,0,0,0.12790164,-2261.2295,31.024859)" />
        <path
           sodipodi:type="arc"
           style="fill:#ff7f2a;fill-opacity:1;fill-rule:nonzero;stroke:none"
           id="path58641-2"
           sodipodi:cx="1940.1"
           sodipodi:cy="310.40952"
           sodipodi:rx="30"
           sodipodi:ry="30"
           d="m 1970.1,310.40952 c 0,16.56854 -13.4315,30 -30,30 -16.5686,0 -30,-13.43146 -30,-30 0,-16.56855 13.4314,-30 30,-30 16.5685,0 30,13.43145 30,30 z"
           transform="matrix(0.76429775,0,0,0.76429775,-694.16754,-121.68971)" />
        <path
           sodipodi:type="arc"
           style="fill:#ff7f2a;fill-opacity:1;fill-rule:nonzero;stroke:none"
           id="path58641-2-7"
           sodipodi:cx="1940.1"
           sodipodi:cy="310.40952"
           sodipodi:rx="30"
           sodipodi:ry="30"
           d="m 1970.1,310.40952 c 0,16.56854 -13.4315,30 -30,30 -16.5686,0 -30,-13.43146 -30,-30 0,-16.56855 13.4314,-30 30,-30 16.5685,0 30,13.43145 30,30 z"
           transform="matrix(0.45788481,0,0,0.45788481,-3004.4906,-61.931558)" />
        <path
           sodipodi:type="arc"
           style="fill:#ff7f2a;fill-opacity:1;fill-rule:nonzero;stroke:none"
           id="path58641-2-7-6"
           sodipodi:cx="1940.1"
           sodipodi:cy="310.40952"
           sodipodi:rx="30"
           sodipodi:ry="30"
           d="m 1970.1,310.40952 c 0,16.56854 -13.4315,30 -30,30 -16.5686,0 -30,-13.43146 -30,-30 0,-16.56855 13.4314,-30 30,-30 16.5685,0 30,13.43145 30,30 z"
           transform="matrix(0.269323,0,0,0.269323,-2005.8011,-39.462617)" />
        <path
           sodipodi:type="arc"
           style="fill:#ff7f2a;fill-opacity:1;fill-rule:nonzero;stroke:none"
           id="path58641-2-7-6-1"
           sodipodi:cx="1940.1"
           sodipodi:cy="310.40952"
           sodipodi:rx="30"
           sodipodi:ry="30"
           d="m 1970.1,310.40952 c 0,16.56854 -13.4315,30 -30,30 -16.5686,0 -30,-13.43146 -30,-30 0,-16.56855 13.4314,-30 30,-30 16.5685,0 30,13.43145 30,30 z"
           transform="matrix(0.1750421,0,0,0.1750421,-1219.0175,-15.853788)" />
        <path
           sodipodi:type="arc"
           style="fill:#d4aa00;fill-opacity:1;fill-rule:nonzero;stroke:none"
           id="path58540-4"
           sodipodi:cx="1105.1"
           sodipodi:cy="305.40952"
           sodipodi:rx="25"
           sodipodi:ry="25"
           d="m 1130.1,305.40952 c 0,13.80711 -11.1929,25 -25,25 -13.8071,0 -25,-11.19289 -25,-25 0,-13.80712 11.1929,-25 25,-25 13.8071,0 25,11.19288 25,25 z"
           transform="matrix(1.1979899,0,0,1.1979899,-2034.3185,-439.82655)" />
        <path
           sodipodi:type="arc"
           style="fill:#d4aa00;fill-opacity:1;fill-rule:nonzero;stroke:none"
           id="path58540-4-2"
           sodipodi:cx="1105.1"
           sodipodi:cy="305.40952"
           sodipodi:rx="25"
           sodipodi:ry="25"
           d="m 1130.1,305.40952 c 0,13.80711 -11.1929,25 -25,25 -13.8071,0 -25,-11.19289 -25,-25 0,-13.80712 11.1929,-25 25,-25 13.8071,0 25,11.19288 25,25 z"
           transform="matrix(0.66058875,0,0,0.66058875,-915.76324,-236.10114)" />
        <path
           sodipodi:type="arc"
           style="fill:#d4aa00;fill-opacity:1;fill-rule:nonzero;stroke:none"
           id="path58540-4-2-3"
           sodipodi:cx="1105.1"
           sodipodi:cy="305.40952"
           sodipodi:rx="25"
           sodipodi:ry="25"
           d="m 1130.1,305.40952 c 0,13.80711 -11.1929,25 -25,25 -13.8071,0 -25,-11.19289 -25,-25 0,-13.80712 11.1929,-25 25,-25 13.8071,0 25,11.19288 25,25 z"
           transform="matrix(0.34946177,0,0,0.34946177,-14.736682,-104.31045)" />
        <path
           sodipodi:type="arc"
           style="fill:#d4aa00;fill-opacity:1;fill-rule:nonzero;stroke:none"
           id="path58540-4-2-3-2"
           sodipodi:cx="1105.1"
           sodipodi:cy="305.40952"
           sodipodi:rx="25"
           sodipodi:ry="25"
           d="m 1130.1,305.40952 c 0,13.80711 -11.1929,25 -25,25 -13.8071,0 -25,-11.19289 -25,-25 0,-13.80712 11.1929,-25 25,-25 13.8071,0 25,11.19288 25,25 z"
           transform="matrix(0.20804041,0,0,0.20804041,728.44668,-55.462174)" />
      </g>
    </g>
  </g>
</svg>
