<?xml version="1.0" encoding="UTF-8" standalone="no"?>
<!-- Created with Inkscape (http://www.inkscape.org/) -->

<svg
   xmlns:dc="http://purl.org/dc/elements/1.1/"
   xmlns:cc="http://creativecommons.org/ns#"
   xmlns:rdf="http://www.w3.org/1999/02/22-rdf-syntax-ns#"
   xmlns:svg="http://www.w3.org/2000/svg"
   xmlns="http://www.w3.org/2000/svg"
   xmlns:sodipodi="http://sodipodi.sourceforge.net/DTD/sodipodi-0.dtd"
   xmlns:inkscape="http://www.inkscape.org/namespaces/inkscape"
   width="1215.8284"
   height="515.11963"
   id="svg7146"
   version="1.1"
   inkscape:version="0.48.4 r9939"
   sodipodi:docname="weird_rocks.svg">
  <defs
     id="defs7148" />
  <sodipodi:namedview
     id="base"
     pagecolor="#ffffff"
     bordercolor="#666666"
     borderopacity="1.0"
     inkscape:pageopacity="0.0"
     inkscape:pageshadow="2"
     inkscape:zoom="0.7"
     inkscape:cx="714.58112"
     inkscape:cy="89.985512"
     inkscape:document-units="px"
     inkscape:current-layer="layer1"
     showgrid="false"
     showborder="false"
     inkscape:showpageshadow="false"
     inkscape:window-width="1280"
     inkscape:window-height="972"
     inkscape:window-x="-8"
     inkscape:window-y="-8"
     inkscape:window-maximized="1"
     fit-margin-top="0"
     fit-margin-left="0"
     fit-margin-right="0"
     fit-margin-bottom="0">
    <inkscape:grid
       type="xygrid"
       id="grid9040"
       empspacing="5"
       visible="true"
       enabled="true"
       snapvisiblegridlinesonly="true"
       originx="20.000074px"
       originy="-150.15368px" />
  </sodipodi:namedview>
  <metadata
     id="metadata7151">
    <rdf:RDF>
      <cc:Work
         rdf:about="">
        <dc:format>image/svg+xml</dc:format>
        <dc:type
           rdf:resource="http://purl.org/dc/dcmitype/StillImage" />
        <dc:title />
      </cc:Work>
    </rdf:RDF>
  </metadata>
  <g
     inkscape:label="Layer 1"
     inkscape:groupmode="layer"
     id="layer1"
     transform="translate(1315.9349,-87.088813)">
    <g
       id="g3298">
      <g
         id="g10736">
        <rect
           style="fill:#7cb8ce;fill-opacity:1;fill-rule:nonzero;stroke:none"
           id="rect7154-6-3"
           width="988.85089"
           height="89.451225"
           x="-1089.4739"
           y="383.19815">
          <rect
             style="fill:#7cb8ce;fill-opacity:1;fill-rule:nonzero;stroke:none"
             id="rect9138-3-3-4"
             width="20"
             height="240"
             x="-487.36343"
             y="278.07645">
            <rect
               style="fill:#7cb8ce;fill-opacity:1;fill-rule:nonzero;stroke:none"
               id="rect9138-2-8-2"
               width="20"
               height="240"
               x="-337.36343"
               y="356.64789" />
          </rect>
        </rect>
        <path
           style="fill:#7cb8ce;fill-opacity:1;fill-rule:nonzero;stroke:none"
           d="m -1018.5993,247.48124 48.7989,40.607 16.26629,-148.89233 32.53258,121.821 32.53258,-13.53567 32.53258,81.214 32.53258,40.607 16.26629,-94.74966 48.79887,67.67833 0,-81.214 32.53258,-81.214 0,40.607 48.79887,-94.74966 16.2663,67.67832 16.26629,54.14267 0,81.214 16.26629,27.07134 32.53258,-67.67834 16.26629,54.14267 16.26629,27.07133 48.79887,-175.96367 16.26629,108.28534 97.59774,-108.28534 65.06516,135.35667 32.53258,-121.821 32.53255,148.89234 32.53258,-40.607 16.26629,40.607 0,-108.28534 32.53258,-27.07133 16.26629,-94.74966 16.2663,108.28532 16.26629,54.14267 16.26628,-27.07133 16.26629,175.96367 -977.72025,-42.05721 c 12.1998,-6.76784 -4.0666,43.99085 66.808,-147.44213 z"
           id="path10479-7-2"
           inkscape:connector-curvature="0"
           sodipodi:nodetypes="ccccccccccccccccccccccccccccccccccccc" />
        <rect
           style="fill:#469bba;fill-opacity:1;fill-rule:nonzero;stroke:none"
           id="rect7154-6"
           width="1124.3599"
           height="122.22771"
           x="190.82846"
           y="438.9931"
           transform="scale(-1,1)">
          <rect
             style="fill:#469bba;fill-opacity:1;fill-rule:nonzero;stroke:none"
             id="rect9138-3-3"
             width="20"
             height="240"
             x="-487.36343"
             y="278.07645">
            <rect
               style="fill:#469bba;fill-opacity:1;fill-rule:nonzero;stroke:none"
               id="rect9138-2-8"
               width="20"
               height="240"
               x="-337.36343"
               y="356.64789" />
          </rect>
        </rect>
        <path
           style="fill:#469bba;fill-opacity:1;fill-rule:nonzero;stroke:none"
           d="m -271.41553,253.54714 -55.48611,55.48611 -18.49537,-203.44907 -36.99075,166.45833 -36.99074,-18.49537 -36.99074,110.97223 -36.99074,55.48611 -18.49537,-129.4676 -55.48611,92.47686 0,-110.97223 -36.99075,-110.97221 0,55.4861 -55.48611,-129.467587 -18.49537,92.476847 -18.49537,73.98148 0,110.97223 -18.49537,36.99074 -36.99074,-92.47686 -18.49537,73.98149 -18.49537,36.99074 -55.48612,-240.43982 -18.49537,147.96296 -110.97222,-147.96296 -73.98148,184.95371 -36.9907,-166.45834 -36.9908,203.44908 -36.9907,-55.48611 -18.4954,55.48611 0,-147.96297 -36.9907,-36.99074 -18.4954,-129.467587 -18.4953,147.962957 -18.4954,73.98148 -18.4954,-36.99074 -18.4954,240.43982 1111.70394,-57.4677 c -13.87162,-9.24769 4.62384,60.10986 -75.96317,-201.46749 z"
           id="path10479-7"
           inkscape:connector-curvature="0"
           sodipodi:nodetypes="ccccccccccccccccccccccccccccccccccccc" />
        <path
           style="fill:#2c6377;fill-opacity:1;fill-rule:nonzero;stroke:none"
           d="m -1228.792,269.505 60,60 20,-219.99999 40,179.99999 40,-20 40,120 40,60 20,-140 60,100 0,-120 40,-119.99999 0,59.99999 60,-139.999994 20,99.999994 20,80 0,120 20,40 40,-100 20,80 20,40 60,-260 20,160 120,-160 80,200 40,-180 39.99996,220 40,-60 20,60 0,-160 40,-40 20,-139.999994 20,159.999994 20,80 20,-40 20,260 -1202.14286,-62.14285 c 15.0001,-10 -5,65 82.1429,-217.85715 z"
           id="path10479"
           inkscape:connector-curvature="0"
           sodipodi:nodetypes="ccccccccccccccccccccccccccccccccccccc" />
        <path
           style="fill:#3d89a5;fill-opacity:1;fill-rule:nonzero;stroke:none"
           d="m -1275.9349,472.36214 60,-160 40,40 z"
           id="path10483"
           inkscape:connector-curvature="0" />
        <path
           style="fill:#4396b4;fill-opacity:1;fill-rule:nonzero;stroke:none"
           d="m -1145.9349,182.36215 0,409.99999 80,0 z"
           id="path10489"
           inkscape:connector-curvature="0" />
        <path
           style="fill:#4396b4;fill-opacity:1;fill-rule:nonzero;stroke:none"
           d="m -1035.9349,402.36214 40.00004,60 -80.00004,30 z"
           id="path10491"
           inkscape:connector-curvature="0" />
        <path
           style="fill:#4396b4;fill-opacity:1;fill-rule:nonzero;stroke:none"
           d="m -965.93486,352.36214 10,130 30,-60 z"
           id="path10493"
           inkscape:connector-curvature="0" />
        <path
           style="fill:#4396b4;fill-opacity:1;fill-rule:nonzero;stroke:none"
           d="m -815.93486,172.36215 40,329.99999 -90,60 z"
           id="path10495"
           inkscape:connector-curvature="0" />
        <path
           style="fill:#4396b4;fill-opacity:1;fill-rule:nonzero;stroke:none"
           d="m -875.93486,242.36214 -20,60 20,30 z"
           id="path10497"
           inkscape:connector-curvature="0" />
        <path
           style="fill:#4396b4;fill-opacity:1;fill-rule:nonzero;stroke:none"
           d="m -705.93486,442.36214 40,50 40,-120 -20,210 z"
           id="path10499"
           inkscape:connector-curvature="0" />
        <path
           style="fill:#4396b4;fill-opacity:1;fill-rule:nonzero;stroke:none"
           d="m -465.93486,222.36214 50,170 -110,-70 z"
           id="path10501"
           inkscape:connector-curvature="0" />
        <path
           style="fill:#4396b4;fill-opacity:1;fill-rule:nonzero;stroke:none"
           d="m -505.93486,552.36214 60,-130 20,70 80,-130 -40,170 30,-20 30,40 z"
           id="path10503"
           inkscape:connector-curvature="0" />
        <path
           style="fill:#4396b4;fill-opacity:1;fill-rule:nonzero;stroke:none"
           d="m -185.9349,192.36214 0,370 -40,0 0,-160 10,40 z"
           id="path10505"
           inkscape:connector-curvature="0" />
        <rect
           style="fill:#2c6377;fill-opacity:1;fill-rule:nonzero;stroke:none"
           id="rect7154"
           width="1215.8284"
           height="132.17114"
           x="-1315.9349"
           y="470.03732">
          <rect
             style="fill:#2c6377;fill-opacity:1;fill-rule:nonzero;stroke:none"
             id="rect9138-3"
             width="20"
             height="240"
             x="-487.36343"
             y="278.07645">
            <rect
               style="fill:#2c6377;fill-opacity:1;fill-rule:nonzero;stroke:none"
               id="rect9138-2"
               width="20"
               height="240"
               x="-337.36343"
               y="356.64789" />
          </rect>
        </rect>
      </g>
      <rect
         ry="3.0812576"
         transform="translate(-1315.9349,87.088813)"
         y="415.11963"
         x="0"
         height="101.42857"
         width="1215.7142"
         id="rect3296"
         style="opacity:0.5;fill:#469bba;fill-opacity:1;fill-rule:nonzero;stroke:none" />
    </g>
  </g>
</svg>
