<?xml version="1.0" encoding="UTF-8" standalone="no"?>
<!-- Created with Inkscape (http://www.inkscape.org/) -->

<svg
   xmlns:dc="http://purl.org/dc/elements/1.1/"
   xmlns:cc="http://creativecommons.org/ns#"
   xmlns:rdf="http://www.w3.org/1999/02/22-rdf-syntax-ns#"
   xmlns:svg="http://www.w3.org/2000/svg"
   xmlns="http://www.w3.org/2000/svg"
   xmlns:sodipodi="http://sodipodi.sourceforge.net/DTD/sodipodi-0.dtd"
   xmlns:inkscape="http://www.inkscape.org/namespaces/inkscape"
   width="1287.257"
   height="721.1413"
   id="svg7146"
   version="1.1"
   inkscape:version="0.48.4 r9939"
   sodipodi:docname="weird_rocks.svg">
  <defs
     id="defs7148" />
  <sodipodi:namedview
     id="base"
     pagecolor="#ffffff"
     bordercolor="#666666"
     borderopacity="1.0"
     inkscape:pageopacity="0.0"
     inkscape:pageshadow="2"
     inkscape:zoom="0.7"
     inkscape:cx="714.58115"
     inkscape:cy="423.2944"
     inkscape:document-units="px"
     inkscape:current-layer="layer1"
     showgrid="false"
     showborder="false"
     inkscape:showpageshadow="false"
     inkscape:window-width="1280"
     inkscape:window-height="972"
     inkscape:window-x="-8"
     inkscape:window-y="-8"
     inkscape:window-maximized="1"
     fit-margin-top="0"
     fit-margin-left="0"
     fit-margin-right="0"
     fit-margin-bottom="0">
    <inkscape:grid
       type="xygrid"
       id="grid9040"
       empspacing="5"
       visible="true"
       enabled="true"
       snapvisiblegridlinesonly="true"
       originx="20.000105px"
       originy="-100.28728px" />
  </sodipodi:namedview>
  <metadata
     id="metadata7151">
    <rdf:RDF>
      <cc:Work
         rdf:about="">
        <dc:format>image/svg+xml</dc:format>
        <dc:type
           rdf:resource="http://purl.org/dc/dcmitype/StillImage" />
        <dc:title />
      </cc:Work>
    </rdf:RDF>
  </metadata>
  <g
     inkscape:label="Layer 1"
     inkscape:groupmode="layer"
     id="layer1"
     transform="translate(1315.9349,69.066424)">
    <g
       id="g10887">
      <rect
         y="415.0593"
         x="-1076.1696"
         height="96.177834"
         width="1046.9448"
         id="rect7154-6-3"
         style="fill:#7cb8ce;fill-opacity:1;fill-rule:nonzero;stroke:none">
        <rect
           y="278.07645"
           x="-487.36343"
           height="240"
           width="20"
           id="rect9138-3-3-4"
           style="fill:#7cb8ce;fill-opacity:1;fill-rule:nonzero;stroke:none">
          <rect
             y="356.64789"
             x="-337.36343"
             height="240"
             width="20"
             id="rect9138-2-8-2"
             style="fill:#7cb8ce;fill-opacity:1;fill-rule:nonzero;stroke:none" />
        </rect>
      </rect>
      <path
         sodipodi:nodetypes="ccccccccccccccccccccccccccccccccccccc"
         inkscape:connector-curvature="0"
         id="path10479-7-2"
         d="m -1001.1312,269.13665 51.66582,43.66059 17.22191,-160.08883 34.44384,130.98177 34.44383,-14.55353 34.44383,87.32118 34.44384,43.66059 17.22191,-101.8747 51.66575,72.76764 0,-87.32118 34.44383,-87.32118 0,43.66059 51.66575,-101.8747 17.22193,72.76764 17.22192,58.21412 0,87.32118 17.22192,29.10706 34.44383,-72.76765 17.22192,58.21412 12.68442,-107.59677 51.66575,-189.195886 21.75941,253.132066 103.3315,-116.42824 68.88767,145.5353 34.44383,-130.98177 34.4438,160.08883 34.44383,-43.66058 17.22192,43.66058 0,-116.42824 34.44383,-29.10706 17.22192,-101.8747 17.221927,116.42823 17.221917,58.21412 17.221906,-29.10706 17.221916,189.19589 -1035.160276,-45.21985 c 12.9166,-7.27677 -4.3055,47.2989 70.7329,-158.52957 z"
         style="fill:#7cb8ce;fill-opacity:1;fill-rule:nonzero;stroke:none" />
      <rect
         transform="scale(-1,1)"
         y="475.04993"
         x="124.7297"
         height="131.41905"
         width="1190.4148"
         id="rect7154-6"
         style="fill:#469bba;fill-opacity:1;fill-rule:nonzero;stroke:none">
        <rect
           y="278.07645"
           x="-487.36343"
           height="240"
           width="20"
           id="rect9138-3-3"
           style="fill:#469bba;fill-opacity:1;fill-rule:nonzero;stroke:none">
          <rect
             y="356.64789"
             x="-337.36343"
             height="240"
             width="20"
             id="rect9138-2-8"
             style="fill:#469bba;fill-opacity:1;fill-rule:nonzero;stroke:none" />
        </rect>
      </rect>
      <path
         sodipodi:nodetypes="ccccccccccccccccccccccccccccccccccccc"
         inkscape:connector-curvature="0"
         id="path10479-7"
         d="m -210.05117,275.6587 -58.74586,59.65858 -19.58195,-218.74815 -39.16392,178.97576 -39.1639,-19.88619 -39.16391,119.31718 -39.1639,59.65859 -19.58196,-139.20338 -58.74585,99.43099 0,-119.31719 -39.16392,-119.31716 0,59.65857 -55.72086,-202.179282 -22.60695,162.406892 -19.58195,79.54479 0,119.31718 -19.58196,39.77239 -39.1639,-99.43099 -19.58195,79.5448 -19.58196,39.77239 -58.74587,-258.52056 -19.58195,159.08957 -117.49171,-159.08957 -78.3278,198.86197 -39.1639,-300.319614 -39.1639,340.092004 -39.1639,-59.65858 -19.582,59.65858 0,-159.08957 -39.1639,-39.7724 -18.0694,-162.243334 -21.0944,182.129534 -19.582,79.54478 -19.582,-39.77239 -19.582,258.52056 1177.01535,-61.78919 c -14.68656,-9.9431 4.89549,64.63004 -80.42592,-216.61756 z"
         style="fill:#469bba;fill-opacity:1;fill-rule:nonzero;stroke:none" />
      <path
         sodipodi:nodetypes="ccccccccccccccccccccccccccccccccccccc"
         inkscape:connector-curvature="0"
         id="path10479"
         d="m -1223.6725,292.81656 63.525,64.51192 19.6624,-313.34358 43.8625,270.33564 42.35,-21.50398 42.3499,129.02384 42.34998,64.51191 21.17498,-150.5278 63.52493,107.51986 0,-129.02383 42.34996,-129.02382 0,64.5119 69.57493,-318.875044 15.12498,275.867104 21.17498,86.01588 0,129.02384 21.17498,43.00794 42.34995,-107.51986 21.17498,86.01589 21.17498,43.00794 63.52493,-279.55163 21.17498,172.03177 127.04987,-172.03177 84.69991,215.03972 25.71247,-265.72766 58.9874,308.7356 42.34996,-64.51192 21.17497,64.51192 0,-172.03178 42.34996,-43.00794 13.61248,-248.8316682 28.73748,270.3356382 21.174973,86.01589 21.174978,-43.00794 21.174978,279.55163 -1272.767469,-66.8159 c 15.8814,-10.75199 -5.2937,69.88791 86.9687,-234.23971 z"
         style="fill:#2c6377;fill-opacity:1;fill-rule:nonzero;stroke:none" />
      <path
         inkscape:connector-curvature="0"
         id="path10483"
         d="m -1273.5849,510.92828 63.5249,-172.03178 42.3499,43.00795 z"
         style="fill:#3d89a5;fill-opacity:1;fill-rule:nonzero;stroke:none" />
      <path
         inkscape:connector-curvature="0"
         id="path10489"
         d="m -1135.9476,199.12069 0,440.83142 84.6999,0 z"
         style="fill:#4396b4;fill-opacity:1;fill-rule:nonzero;stroke:none" />
      <path
         inkscape:connector-curvature="0"
         id="path10491"
         d="m -1019.4852,435.66438 42.34998,64.51191 -84.69998,32.25596 z"
         style="fill:#4396b4;fill-opacity:1;fill-rule:nonzero;stroke:none" />
      <path
         inkscape:connector-curvature="0"
         id="path10493"
         d="m -945.37275,381.90445 10.58749,139.77581 31.76247,-64.51191 z"
         style="fill:#4396b4;fill-opacity:1;fill-rule:nonzero;stroke:none" />
      <path
         inkscape:connector-curvature="0"
         id="path10495"
         d="m -786.56041,188.36871 42.34995,354.81553 -95.2874,64.51191 z"
         style="fill:#4396b4;fill-opacity:1;fill-rule:nonzero;stroke:none" />
      <path
         inkscape:connector-curvature="0"
         id="path10497"
         d="m -850.08535,263.6326 -21.17498,64.51192 21.17498,32.25595 z"
         style="fill:#4396b4;fill-opacity:1;fill-rule:nonzero;stroke:none" />
      <path
         inkscape:connector-curvature="0"
         id="path10499"
         d="m -670.09803,478.67232 42.34995,53.75993 42.34996,-129.02383 -21.17498,225.7917 z"
         style="fill:#4396b4;fill-opacity:1;fill-rule:nonzero;stroke:none" />
      <path
         inkscape:connector-curvature="0"
         id="path10501"
         d="m -415.9983,242.12863 52.93745,182.78376 -116.46238,-75.2639 z"
         style="fill:#4396b4;fill-opacity:1;fill-rule:nonzero;stroke:none" />
      <path
         inkscape:connector-curvature="0"
         id="path10503"
         d="m -458.34825,596.94417 63.52493,-139.77582 21.17498,75.2639 84.69991,-139.77582 -42.34996,182.78376 31.76247,-21.50397 31.76247,43.00795 z"
         style="fill:#4396b4;fill-opacity:1;fill-rule:nonzero;stroke:none" />
      <path
         inkscape:connector-curvature="0"
         id="path10505"
         d="m -119.54865,209.87267 0,397.82348 -42.34995,0 0,-172.03177 10.58748,43.00794 z"
         style="fill:#4396b4;fill-opacity:1;fill-rule:nonzero;stroke:none" />
      <rect
         y="508.42865"
         x="-1315.9349"
         height="142.11023"
         width="1287.257"
         id="rect7154"
         style="fill:#2c6377;fill-opacity:1;fill-rule:nonzero;stroke:none">
        <rect
           y="278.07645"
           x="-487.36343"
           height="240"
           width="20"
           id="rect9138-3"
           style="fill:#2c6377;fill-opacity:1;fill-rule:nonzero;stroke:none">
          <rect
             y="356.64789"
             x="-337.36343"
             height="240"
             width="20"
             id="rect9138-2"
             style="fill:#2c6377;fill-opacity:1;fill-rule:nonzero;stroke:none" />
        </rect>
      </rect>
      <rect
         ry="3.0812576"
         y="543.01898"
         x="-1315.9349"
         height="109.05586"
         width="1287.1361"
         id="rect3296"
         style="opacity:0.5;fill:#469bba;fill-opacity:1;fill-rule:nonzero;stroke:none"
         rx="3.0812576" />
    </g>
  </g>
</svg>
